<?xml version="1.0" encoding="UTF-8"?>
<svg version="1.1" viewBox="0 0 2047 2048" width="1280" height="1280" xmlns="http://www.w3.org/2000/svg">
<path transform="translate(946,291)" d="m0 0h22l62 2 17 1 2 2v52l1 12 1 1 9 1 38 1 24 2h6l4-2 5-15 6-27 3-10 1-2h10l31 6 28 7 16 5 11 4 4 5-1 13-4 16-6 15-2 15 2 5 8 3 17 4 11 5 26 12 4 3 5-1 5-6 9-16 6-11 12-17 4-3 5 1 17 11 9 6 52 26 6 5 1 3-10 16-13 19-8 15 2 6 5 5 14 11 11 9 10 9 10 7 11 7 4-2 10-11 8-7 12-13 7-8 5-3 6 2 10 9 7 8 17 17 11 9 15 14 6 8 1 7-7 8-25 25-6 8-1 5 7 14 13 16 8 9 8 10 6 7 8 5 7-1 11-8 12-9 13-8 4-2h6l6 7 7 12 8 14 9 17v5l-10 13-12 14-12 13-29 29-8 7-10 9-11 9-10 9-10 8-16 12-13 10-17 13-17 12-18 13-25 17-15 10-19 12-10 7-19 12-11 8-17 12-17 14-12 11-11 9-12 9-9 6-2-1 8-12 11-13 9-11 12-16 8-11 9-10 7-8 12-12 8-7 9-9 11-9 12-10 10-8 11-9 14-12 7-7 2-4v-11l-5-13-11-20-12-19-9-12-11-13-9-10-7-8-47-47-8-7-12-10-17-13-18-13-26-17-25-15-23-12-19-9-26-10-31-10-19-4-18-3-18-5-7-1-27-2-18-2-17-4-14-2h-44l-8 4-4 3-20 1-38 3-52 13-36 12-25 10-24 11-23 12-27 16-19 13-18 13-13 11-13 12-11 11-8 7-22 22-7 8-8 8-7 8-13 16-11 16-14 20-13 21-10 18-14 29-12 28-9 24-9 28-7 30-5 15-1 11-2 36-3 38v28l5 65 2 16 6 24 6 27 12 36 11 28 16 32 20 38 14 21 9 12 14 18 15 16 12 13 36 36 8 7 15 15 11 9 20 14 15 10 22 13 28 17 16 9 72 24 25 6 15 5 17 2 113 5h13l13-8 5-2-2 3 4 1 15-1 8-4 7-4 5-3 19-5 21-7 28-8 5-4 3 1-1-8-2-3-4-15-8-21-4-12-1-6v-13l1-7v-13l-3-10-5-9-2-4-1-21v-35l3-15 6-12 1-3v-21l4-14 14-40 11-26 8-16 9-17 16-25 10-14 10-13 10-11 7-8 9-10 15-15 11-9 12-11 11-9 12-10 16-12 16-13 13-10 39-26 29-19 17-11 23-15 15-10 20-13 48-32 18-13 10-8 18-13 17-12 14-11 12-9 11-9 13-12 12-11 10-10 6-5 5-5 14-15 10-10 7-8 11-12 9-11 10-13 12-17 8-12 4-4h3l2 5 5 29 11 49 6 24 3 27 1 16 3 7 5 7 1 40v110l-1 40-2 17-5 16-3 21-10 47-12 46-16 47-16 43-12 28-14 29-10 18-9 15-12 21-9 16-11 17-9 13-14 18-16 21-11 14-15 16-7 8-22 24-31 31-11 9-12 11-11 9-9 8-14 11-14 10-18 13-19 12-21 13-22 13-25 15-27 13-30 13-19 9-23 9-40 13-33 9-40 9-34 7-26 5-41 7-21 2-31 1h-45l-44-2-31-3-19-3-28-3-10-2-30-8-42-10-30-8-36-12-28-11-18-8-21-10-46-25-25-15-22-14-17-11-12-8-19-14-16-13-14-12-11-11-2-1v-2l-4-2-23-23-7-8-9-9-7-8-12-13-11-14-14-18-11-14-13-17-10-15-11-16 1-6 6-9 11-12 10-10 2 1-16 16-10 14-1 3 5 9 11 16-2-6 1-1h5l5 1h4l4 1v-2h5l5-3 3-2h2v-2l5-1v-2h3v-2h2l1-3 11-5 4-2v-2h3v-4l7-3 6-2-5-8 5 2 22 22 8 7 8 6-9-9-8-7-23-23-7-8-10-11-9-11-11-13-13-18-24-34-7-9-6-4-4-1h-9l-9 4-15 7-7 2h-6l-8-5-7-12-2-9 1-25-5-12-4-8-1-3-1-14v-14l31-4 12-4 6-5 3-7v-29l-1-19-3-14-5-10-4-3-4-1-53-1-1-1v-99l1-4 46 1 11-1 2-1 9-33 2-12 1-12v-13l-4-11v-2l-6-2-11-4-10-2-25-2-2-3 15-47 1-13 3-13 7-16 4-10 3-2 25 10 11 2h15l7-4 7-14 5-13 7-13 9-14 1-4v-8l-4-5-14-9-12-5-21-7-1-4 10-17 10-16 12-19 10-16 7-12 5-7 3-2 5 1 9 6 11 9 7 4 8 4h8l9-8 15-22 12-14 7-10 3-9-6-9-8-7-16-12-8-5 2-6 12-13 17-16 31-31 10-8 7-2 9 5 7 6 8 11 11 12 3 2 5-1 10-6 7-7 14-11 15-13 8-7 2-4-1-8-8-16-15-21 4-7 10-7 16-9 22-13 12-9 18-11 4-2h7l10 23 10 17 7 9h7l8-4 16-9 14-7 22-6 3-3 1-8-2-17-5-15-7-14 1-6 8-4 24-6 57-19 4-1h8l3 10 6 27 7 20 1 4h11l18-4 31-3 20-1v-51l1-18zm-567 1151m-5 3 1 2zm-11 8 1 2zm-3 3m83 0 4 5 2-1-4-4zm-111 4m117 1m-106 1m107 0 3 4 2-1-3-3zm5 4m1 1m10 8m829 35m-2 1m-5 2m-7 3m-2 1m-754 1m751 0m-750 1m747 0m-745 1m743 0m-742 1m739 0m-737 1m735 0m-734 1m731 0m-729 1m727 0m-725 1m2 1m1 1m2 1m2 1m3 2m2 1m759 3m-2 1m-3 2m-2 1m-2 1m-2 1m-2 1m-1 1m-2 1m-2 1m-2 1m-1 1m-2 1m-2 1m-2 1-3 3 5-2zm-5 3m-2 1-5 3 2 1 5-3zm-7 4m-2 1m-1 1m-2 1m-2 1-1 2 3-1z" fill="#39AC66"/>
<path transform="translate(946,291)" d="m0 0h22l62 2 17 1 2 2v52l1 12 1 1 9 1 38 1 24 2h6l4-2 5-15 6-27 3-10 1-2h10l31 6 28 7 16 5 11 4 4 5-1 13-4 16-6 15-2 15 2 5 8 3 17 4 11 5 26 12 4 3 5-1 5-6 9-16 6-11 12-17 4-3 5 1 17 11 9 6 52 26 6 5 1 3-10 16-13 19-8 15 2 6 5 5 14 11 11 9 10 9 10 7 11 7 4-2 10-11 8-7 12-13 7-8 5-3 6 2 10 9 7 8 17 17 11 9 15 14 6 8 1 7-7 8-25 25-6 8-1 5 7 14 13 16 8 9 8 10 6 7 8 5 7-1 11-8 12-9 13-8 4-2h6l6 7 7 12 8 14 9 17v5l-10 13-12 14-12 13-29 29-8 7-10 9-11 9-10 9-10 8-16 12-13 10-17 13-17 12-18 13-25 17-15 10-19 12-10 7-19 12-11 8-17 12-17 14-12 11-11 9-12 9-9 6-2-1 8-12 11-13 9-11 12-16 8-11 9-10 7-8 12-12 8-7 9-9 11-9 12-10 10-8 11-9 14-12 7-7 2-4v-11l-5-13-11-20-12-19-9-12-11-13-9-10-7-8-47-47-8-7-12-10-17-13-18-13-26-17-25-15-23-12-19-9-26-10-31-10-19-4-18-3-18-5-7-1-27-2-18-2-17-4-14-2h-44l-8 4-4 3-20 1-38 3-52 13-36 12-25 10-24 11-23 12-27 16-19 13-18 13-13 11-13 12-11 11-8 7-22 22-7 8-8 8-7 8-13 16-11 16-14 20-13 21-10 18-14 29-12 28-9 24-9 28-7 30-5 15-1 11-2 36-3 38v28l5 65 2 16 6 24 6 27 12 36 11 28 16 32 20 38 14 21 9 12 14 18 15 16 12 13 36 36 8 7 15 15 11 9 20 14 15 10 22 13 28 17 16 9 72 24 25 6 17 6 17 5 5 3-1 3-6 2-21 2h-64l-24-2-31-4-40-7-47-12-32-11-27-11-28-13-36-18-10-6-5-2v-2l-7-2-6-5-16-10-15-11-16-12-11-9-10-8v-2l-4-1-15-13-17-16-20-20-7-8-10-11-9-11-11-13-13-18-24-34-7-9-6-4-4-1h-9l-9 4-15 7-7 2h-6l-8-5-7-12-2-9 1-25-5-12-4-8-1-3-1-14v-14l31-4 12-4 6-5 3-7v-29l-1-19-3-14-5-10-4-3-4-1-53-1-1-1v-99l1-4 46 1 11-1 2-1 9-33 2-12 1-12v-13l-4-11v-2l-6-2-11-4-10-2-25-2-2-3 15-47 1-13 3-13 7-16 4-10 3-2 25 10 11 2h15l7-4 7-14 5-13 7-13 9-14 1-4v-8l-4-5-14-9-12-5-21-7-1-4 10-17 10-16 12-19 10-16 7-12 5-7 3-2 5 1 9 6 11 9 7 4 8 4h8l9-8 15-22 12-14 7-10 3-9-6-9-8-7-16-12-8-5 2-6 12-13 17-16 31-31 10-8 7-2 9 5 7 6 8 11 11 12 3 2 5-1 10-6 7-7 14-11 15-13 8-7 2-4-1-8-8-16-15-21 4-7 10-7 16-9 22-13 12-9 18-11 4-2h7l10 23 10 17 7 9h7l8-4 16-9 14-7 22-6 3-3 1-8-2-17-5-15-7-14 1-6 8-4 24-6 57-19 4-1h8l3 10 6 27 7 20 1 4h11l18-4 31-3 20-1v-51l1-18z" fill="#575657"/>
<path transform="translate(1504,1345)" d="m0 0 3 2-1 7-3 6h-2l-2 5-9 11-11 13-3 5h-2l-1 4h-2l-2 4-9 10-14 15-12 13-3 4h-2v2h-2l-2 4-30 30h-2v2l-11 9-13 11-13 10-17 13-12 9-14 10-17 11-7 4-1 2 2 1-30 18-18 11-27 14-16 8-21 10-9 4-24 10-27 11-24 8-28 9-33 9-33 6-15 3-28 4-39 5-29 3-47 1-28-1-26-3-50-7-30-5-42-10-22-7-12-6-40-15-17-7-43-20-23-13-19-11-15-10-17-12-18-13-17-12-17-13-11-9-15-13-15-14-7-7-5-4-13-3-11-13 1-5-2-3 1-1h5l5 1h4l4 1v-2h5l5-3 3-2h2v-2l5-1v-2h3v-2h2l1-3 11-5 4-2v-2h3v-4l7-3 6-2-5-8 5 2 22 22 8 7 13 11 8 6h3l5 5 13 11 20 15 23 16 10 6v2l10 4v2l5 1 5 4 5 2 36 18 30 14 33 13 31 10 45 11 41 7 34 4 15 1h64l21-2 6-2v-2l-10-4-11-3 4-1 11 1 113 5h13l13-8 5-2-2 3 4 1 15-1 8-4 7-4 5-3 19-5 21-7 28-8 5-4 3 1v-8l19-5 29-9 32-11 13-5 26-13 18-10 11-6 18-11 11-7 14-9 20-13 9-7 12-8 12-9 16-13 10-9 11-9 5-4 14-14h2l2-4 7-7h2v-2h2v-2l8-7 4-4h2v-2l8-7zm-1125 97m-5 3 1 2zm-11 8 1 2zm-3 3m-28 4m11 2m113 5m10 8m829 35m-2 1m-5 2m-7 3m-2 1m-754 1m751 0m-750 1m747 0m-2 1m-3 1m-2 1m-3 1m-729 1m727 0m-725 1m5 3m2 1m764 6m-2 1m-3 2m-2 1m-2 1m-2 1m-2 1m-1 1m-2 1m-2 1m-2 1m-1 1m-2 1m-2 1m-2 1-3 3 5-2zm-5 3m-2 1-5 3 2 1 5-3zm-7 4m-2 1m-1 1m-2 1m-2 1-1 2 3-1z" fill="#FCFCFC"/>
<path transform="translate(1618,1683)" d="m0 0h76l21 3 23 6 16 6 17 8 16 9 18 12 20 14 10 8 12 11 13 12 13 13 7 8 11 13 13 18 12 18 6 10 1 6h-25l-24-1h-28l-44 3-22 4-19 4-33 5-20 5-69 11-11-1-11-5-5-1h-11l-17-3-16-6-15-8-14-10-12-11-13-13-10-13-9-14-2-4 1-5 8-7 16-8 25-9 31-9 24-6 15-2h21l29 3 42 6h7l-23-7-30-5-53-6-17-1-50 1-17 2-24 6-32 10-6 2h-4l2-5 11-9 16-13 15-12 21-13 15-8 25-10 22-7 20-4z" fill="#575657"/>
<path transform="translate(1777,706)" d="m0 0h3l2 5 5 31-5-2-10 1-9 6-5 6-5 2-1 4-6 5h-2v2l-11 9-23 23h-2l-2 4-7 7-8 7-8 8h-2v2l-8 6-5 5-3 1v2l-6 5h-2v2l-10 8-8 7-5 5-3 1-1 3-11 8-8 6-11 7-7 6-4 4-4 3h-3v2l-8 5h-2l-1 3h-3v2l-5 4h-3l-1 3-5 4-4 4-11 7-18 12h-2v2l-13 8-5 3-14 9-5 4-11 6-7 5h-3v2l-5 1v2l-7 4-3 1v2l-5 1v2l-5 2-3 1v2l-5 3h-3v2l-6 4h-2l-1 2-5 3-8 5-1 2-6 3h-2v2l-5 3h-2l-2 4-9 6h-2l-1 3h-2v2l-11 7-5 4-11 7-5 4-11 8h-2l-1 3h-2l-2 4-5 3h-2v2l-6 4h-2l-1 3-12 8-3 1v2l-4 3h-2v2l-4 1v2h-2l-1 3h-2l-2 4-5 6h-2v2l-2 2-3 1-2 5h-2l-2 4h-2l-2 4-15 15-1 2h-2v3l-3 3h-2l-2 4-6 8-7 9-6 9-5 6-2 5-10 15-7 11-8 16-3 5-4 10-7 16-6 16-4 10-2 15-3 21-3 24-1 14v42l3 32 7 32 4 25 5 15 2 5 6 2h9l17-5 18-6 14-7 11-5 25-11 10-4 13-6 19-10 10-6 20-11 10-7 11-7 13-10 10-8 13-9 13-10 16-13 17-14 7-7h2l2-4h2v-2l6-5 13-13 10-8 4-2 2-4 3-1 2-4 6-7h2l2-4 8-8 5-7h2l2-4 9-11 5-4 12-16 16-23 9-14 15-22 2-3 4 1 1 4-3 10h-2l-1 6-8 16-11 20-11 17-16 25-10 15-12 19-10 13-8 10-13 17-10 13-12 14-44 44h-2l-2 4-10 9-14 13-8 7-26 22-9 6-4 4-15 11-16 11-17 11-24 15-20 12-11 7-12 7-16 8-25 12-40 17-42 16-39 12-28 8-52 11-53 8-28 3-16 1-30 1h-29l-32-2-34-4-26-4-33-6-48-12-31-10-32-11-25-11-17-7-19-10-14-8-14-7-19-12-14-9-13-9-18-12-19-12-12-8-13-10-9-6-2-1v-2l-6-2-8-3-5-2-1 2-9-11-10-13-12-15-26-38 1-6 6-9 11-12 10-10 2 1-16 16-10 14-1 3 5 9 10 14 2 5 9 11 13 3 13 12 8 8 8 7 14 12 11 9 21 16 16 11 14 10 17 12 20 13 21 12 20 11 26 12 16 7 27 11 19 7 19 8 10 4 21 6 34 8 50 8 45 6 30 2h22l34-1 47-5 29-4 31-5 45-9 38-11 39-13 27-11 24-10 39-18 38-20 19-12 23-14 1-4 15-9 12-8 12-9 19-14 10-8 14-11 13-11 7-6h2v-2l8-7 25-25 1-2h2v-2h2l2-4 8-8 7-8 16-17 7-9h2l1-4h2l2-5 9-10 11-14 3-5h2l1-5 2-4-1-5-7 3-6 6h-2v2l-8 7-4 4h-2v2h-2v2l-8 7-16 16h-2l-1 3-11 9-12 11-28 22-12 8-11 8-10 7-11 7-14 9-13 8-19 12-16 8-10 6-16 8-15 7-34 12-28 9-21 6h-6l-2-3-4-15-8-21-4-12-1-6v-13l1-7v-13l-3-10-5-9-2-4-1-21v-35l3-15 6-12 1-3v-21l4-14 14-40 11-26 8-16 9-17 16-25 10-14 10-13 10-11 7-8 9-10 15-15 11-9 12-11 11-9 12-10 16-12 16-13 13-10 39-26 29-19 17-11 23-15 15-10 20-13 48-32 18-13 10-8 18-13 17-12 14-11 12-9 11-9 13-12 12-11 10-10 6-5 5-5 14-15 10-10 7-8 11-12 9-11 10-13 12-17 8-12z" fill="#8BC5A2"/>
<path transform="translate(1618,1683)" d="m0 0h76l21 3 23 6 16 6 17 8 16 9 18 12 20 14 10 8 12 11 13 12 13 13 7 8 11 13 13 18 12 18 6 10 1 6h-25l-24-1h-28l-48 3 2-2 9-2 42-5 9-1 38-1 4-2 1-3v-9l-9-12-2-4h-2l-4-6v-2h-2l-8-11-11-13v-2h-2l-6-7-8-7v-2h-2v-2h-2v-2l-4-2-3-2v-2l-4-2-14-12-16-11-15-9-15-6-16-7-17-6-11-4-18-4-11-3-11-2-10-1-4-1-15-1h-8l-3-1-1 1-38 2h-11l-13 5-10 2-18 8h-2v2l-8 4-9 6-10 4-8 6h-2v2h-2l-1 3h-2v2h-2v3h-2v4l19-2 7-3 43-3 13 1 29 1 35 4 21 4 18 4 17 6 10 5v5l-8 1h-17l-20-1h-70l-20 3-13 4-14 8-16 8-7 5-12 4-11 1-5 3-1 2 1 13 4 5v2l5 1 5 6 3 2v2h2v2h2v2l4 2v2l4 2 14 11 9 6 21 10 10 3 12 2 25 3h33l22-1 14-2 15-2 23-5 25-4 5 1v1l-39 6-20 5-69 11-11-1-11-5-5-1h-11l-17-3-16-6-15-8-14-10-12-11-13-13-10-13-9-14-2-4 1-5 8-7 16-8 25-9 31-9 24-6 15-2h21l29 3 42 6h7l-23-7-30-5-53-6-17-1-50 1-17 2-24 6-32 10-6 2h-4l2-5 11-9 16-13 15-12 21-13 15-8 25-10 22-7 20-4z" fill="#676768"/>
<path transform="translate(1777,706)" d="m0 0h3l2 5 5 31-5-2-10 1-9 6-5 6-5 2-1 4-6 5h-2v2l-11 9-23 23h-2l-2 4-7 7-8 7-8 8h-2v2l-8 6-5 5-3 1v2l-6 5h-2v2l-10 8-8 7-5 5-3 1-1 3-11 8-8 6-11 7-7 6-4 4-4 3h-3v2l-8 5h-2l-1 3h-3v2l-5 4h-3l-1 3-5 4-4 4-11 7-18 12h-2v2l-13 8-5 3-14 9-5 4-11 6-7 5h-3v2l-5 1v2l-7 4-3 1v2l-5 1v2l-5 2-3 1v2l-5 3h-3v2l-6 4h-2l-1 2-5 3-8 5-1 2-6 3h-2v2l-5 3h-2l-2 4-9 6h-2l-1 3h-2v2l-11 7-5 4-11 7-5 4-11 8h-2l-1 3h-2l-2 4-5 3h-2v2l-6 4h-2l-1 3-12 8-3 1v2l-4 3h-2v2l-4 1v2h-2l-1 3h-2l-2 4-5 6h-2v2l-2 2-3 1-2 5h-2l-2 4h-2l-2 4-15 15-1 2h-2v3l-3 3h-2l-2 4-6 8-7 9-6 9-5 6-2 5-10 15-7 11-8 16-3 5-4 10-7 16-6 16-4 10-2 15-3 21-3 24-1 14v42l3 32 7 32 4 25 5 15 2 5 6 2h9l17-5 18-6 14-7 11-5 25-11 10-4 13-6 19-10 10-6 20-11 10-7 11-7 13-10 10-8 13-9 13-10 16-13 17-14 7-7h2l2-4h2v-2l6-5 13-13 10-8 4-2 2-4 3-1 2-4 6-7h2l2-4 8-8 5-7h2l2-4 9-11v3l-11 14-10 11-9 11-7 7-7 8-9 9-6 5h-2v2l-8 7-30 28-13 11-14 10-17 12-11 8-18 13-15 10-25 15-22 12-19 10-16 7-16 8-29 13-40 13h-9l-5-5-4-10-6-24-5-27-3-22-9-18-1-21v-35l3-15 6-12 1-3v-21l4-14 14-40 11-26 8-16 9-17 16-25 10-14 10-13 10-11 7-8 9-10 15-15 11-9 12-11 11-9 12-10 16-12 16-13 13-10 39-26 29-19 17-11 23-15 15-10 20-13 48-32 18-13 10-8 18-13 17-12 14-11 12-9 11-9 13-12 12-11 10-10 6-5 5-5 14-15 10-10 7-8 11-12 9-11 10-13 12-17 8-12z" fill="#65BB86"/>
<path transform="translate(315,1307)" d="m0 0 5 1 7 5 11 17 6 8v2h2l9 11 9 10 7 9 12 14 7 9v2l3 1 7 11 10 11v2l4 2 4 5 8 7 2 4 5 2v2l4 2 4 4v2l4 2 14 12 10 8v2l4 2 10 8 8 6 5 4 15 10 10 6 14 9 17 10 19 10 16 8 20 8 27 10 12 5 34 11 11 2 14 4 25 6 19 3 36 6 37 4h37l7-1v-3l-9-3-16-5-18-7-3-2-9-3-16-7-18-8-32-16-15-8-18-11-21-13-6-4v-2l-4-1v-2l-4-2-5-5-7-4-8-6-3-2v-2h-3l-3-3v-2l-4-2-8-7-24-24-7-6-7-8-9-11-6-8-8-10-9-10-15-24-9-13-6-12-8-13-1-7 3 4 10 19 14 21 9 12 14 18 15 16 12 13 36 36 8 7 15 15 11 9 20 14 15 10 22 13 28 17 16 9 72 24 25 6 17 6 17 5 5 3-1 3-6 2-21 2h-64l-24-2-31-4-40-7-47-12-32-11-27-11-28-13-36-18-10-6-5-2v-2l-7-2-6-5-16-10-15-11-16-12-11-9-10-8v-2l-4-1-15-13-17-16-20-20-7-8-10-11-9-11-11-13-13-18-24-34-7-9-6-4z" fill="#787879"/>
<path transform="translate(1602,1190)" d="m0 0 4 1v7l-11 28-10 22-12 21-16 25-22 33-11 17-8 12-10 13-14 18-10 13-9 12-15 16-12 12-6 7-6 5-5 5-15 14-5 6-11 9-4 2-1 3-11 9-7 7-9 7-5 5-10 8-19 14-10 7-20 13-23 14-14 9-35 21-15 8-22 10-28 12-16 6-12 5-23 9-25 8-49 14-54 12-19 3-34 5-32 3-15 1h-71l-33-3-29-4-50-9-15-4-44-11-21-7-14-4-11-4-8-4-13-5-11-5-14-4v-2l-7-2-14-7-10-6-14-7-8-5v-2l-4-2-3-1v-2l-6-2-8-4-1-2-4-2-10-6-7-4-13-4-9-6-3-1-2-3-11-5-5-1 2 4 2 5 4 5v2h2l7 9v2l4 2v2h2l4 5 2 1-1 3-25-25-7-8-9-9-7-8-12-13-11-14-1-5 12 3 7 4v2l6 2 11 9 13 9 17 11 16 10 10 7 13 9 14 9 23 14 36 19 12 6 35 15 28 10 31 10 17 5 29 7 23 5 37 6 41 5 32 2h29l30-1 26-2 32-4 44-7 47-10 45-13 33-11 38-15 28-12 18-8 24-12 23-13 22-14 20-12 23-15 16-11 16-12h2l1-3 11-8 14-12 11-9 13-12 8-7 7-7 8-7 45-45 9-11 11-14 13-17 11-14 12-17 11-18 12-18 16-25 8-13 10-18 7-17h2l1-7 1-6-4-2-2 4-30 45-2 1 2-5 22-33 8-13 11-18z" fill="#60BA83"/>
<path transform="translate(492,1254)" d="m0 0 2 3 11 27 15 30 7 13 2 9 13 22 4 7 10 15 11 18 7 7 11 14 10 13 7 8 3 3v2l4 2 6 6v2l4 2 23 23 6 4v2l3 1v2h3v2l4 2 11 8 5 3 7 6v2l4 1v2l5 2 17 11 25 15 24 13 23 11 16 7 18 8 9 3 24 10 18 5 3 2-1 4-7 1h-37l-43-5-30-5-19-3-37-9-12-3-17-5-29-10-12-5-18-7-21-8-19-10-15-8-15-9-14-9-18-11-11-8-7-6-6-4-8-7-2-1v-2l-4-2-10-9-11-9-5-5-6-5v-2l-5-2-7-8-5-5-6-5-9-11-8-11-18-22-11-13-9-11-9-10v-2h-2l-9-13-8-12v-2l-4-2-5-3-7-1v-3h7l5 3 5 4 7 9 5 6v2l3 1 4 7 4 6 11 12 5 7 5 5 4 5v2l3 1v2l3 1 2 5h2l9 11 8 11 2 4h2l7 8 4 5 20 20 5 4v2l5 2 5 5 2 4 4 2 14 11v2l5 2 7 6 6 4 5 4 19 13 13 9 13 8 14 8 36 18 7 4 26 8 20 7 13 4 20 7 17 3 22 7 14 3 28 5 30 5 12 1 10 1h15v-4l-5-2-11-5-13-5-16-8-20-12-17-10-7-3v-2l-5-1-10-6-9-5-6-4-17-10-8-5-4-4-5-4v-2l-3-1-3-3-6-3-5-4v-2l-4-2-7-6-8-7-10-10v-2h-3l-2-5-4-2-4-5-5-5-7-6-4-5-5-5-9-11-6-9-11-14-7-9-6-9-13-20-6-9-5-10-5-8-5-13-4-7-4-12-5-7-4-13-4-8-6-18z" fill="#666667"/>
<path transform="translate(1276,609)" d="m0 0 5 2 21 12 12 7 3 3v2l4 2 3 2v2l4 2 11 9 8 6 11 9 10 8 3 5 3 2v2l4 2 6 5v3l4 2 4 4v2l5 2v2h2l3 3v3l4 2 6 7 3 1v4l4 2 4 3v3h2l1 4 4 2 6 7v3l3 1 14 22 5 10 3 3 4 10 3 9 1 7v13l-2 9-2 4h-2l-2 5-2 3h-2l-2 4-5 5-4 2-1 3h-2v2l-7 5-5 6-4 7-14 11-9 6-6 3-6 7h-2l-2 4-3 4h-2v2l-6 5-4 1-2 5-1 3 6-2 9-8 7-3 5-4 8-3 8-7 7-4 6-2 6-5 10-4 15-9 3 1-15 10-19 12-10 7-19 12-11 8-17 12-17 14-12 11-11 9-12 9-9 6-2-1 8-12 11-13 9-11 12-16 8-11 9-10 7-8 12-12 8-7 9-9 11-9 12-10 10-8 11-9 14-12 7-7 2-4v-11l-5-13-11-20-12-19-9-12-11-13-9-10-7-8-47-47-8-7-12-10-17-13-18-13-24-16z" fill="#676768"/>
<path transform="translate(1147,309)" d="m0 0h10l31 6 28 7 16 5 11 4 4 5-1 13-4 16-2 5-1-4v-7l-4-9-8-8-21-6-12-3-7-2h-12l-8 3-5 4-8 6-4 7-4 6-3 5-5 5-4 3-11 4h-22l-10-2-9-2-11-3-15-3-2-2 44 1 24 2h6l4-2 5-15 6-27 3-10z" fill="#666667"/>
<path transform="translate(1343,373)" d="m0 0 5 1 17 11 9 6 52 26 6 5 1 3-10 16h-1l-2-9-7-9v-2l-5-2-13-7-21-5-6-1h-14l-11 4-5 2v2l-11 6-3 1v2l-13 9-10 1-12-2-6-4-9-3-10-5-4-1v-2l-5-1v-2l-4-1-5-4-5-3v-2l13 2 11 4 18 8 16 8 3 2 5-1 5-6 9-16 6-11 12-17z" fill="#666667"/>
<path transform="translate(1405,484)" d="m0 0 5 3 13 10 11 9 10 9 10 7 11 7 4-2 10-11 8-7 12-13 7-8 5-3 6 2 10 9 7 8 17 17 11 9 15 14 6 8 1 7-7 8-20 20-1-3 3-4h2l2-4 4-4h2l2-5 1-4-1-6-5-7-9-7-16-10-9-7-6-5-5-3-7-2-4-1-10 4-14 7-10 7-4 2-8-1-17-9-15-11-2-1v-2h-2v-2h-2l-18-18-3-5z" fill="#666667"/>
<path transform="translate(1527,1301)" d="m0 0v3l-11 14-10 11-9 11-7 7-7 8-9 9-6 5h-2v2l-8 7-30 28-13 11-14 10-17 12-11 8-18 13-15 10-25 15-22 12-19 10-16 7-16 8-29 13-40 13h-9l-5-5-4-10-6-24-5-27-3-22-9-18-1-21v-35l3-15 6-12 1-3v-21l4-14 3-9 3-1-2 18-3 21-3 24-1 14v42l3 32 7 32 4 25 5 15 2 5 6 2h9l17-5 18-6 14-7 11-5 25-11 10-4 13-6 19-10 10-6 20-11 10-7 11-7 13-10 10-8 13-9 13-10 16-13 17-14 7-7h2l2-4h2v-2l6-5 13-13 10-8 4-2 2-4 3-1 2-4 6-7h2l2-4 8-8 5-7h2l2-4z" fill="#60BA83"/>
<path transform="translate(839,308)" d="m0 0h8l3 10 3 14v5l-2-1-1-3-4-4v-2l-7-2h-10l-21 9-10 4-14 7-9 6-6 9-4 16-2 17-4 8-7 8-10 7-22 9-12 4h-7l-7 1-4-2 10-3 13-8 17-9 25-7 3-3 1-8-2-17-5-15-7-14 1-6 8-4 24-6 57-19z" fill="#666667"/>
<path transform="translate(654,378)" d="m0 0h7l10 23 10 17 1 3-5-1-7-5v-2h-2v-2l-11-2h-12l-11 4-15 8-8 5-12 6-6 5-3 11-1 18-3-3-7-12-10-13-1-3 6-8 17-10 19-11 11-7 14-10 15-9z" fill="#676768"/>
<path transform="translate(351,775)" d="m0 0 1 3-4 13-9 24-8 16-4 5-18 8h-29l-7 2v2l-6 4-4 8-8 20-4 24v10l3 6 5 4h-11l-13-1-2-3 15-47 1-13 3-13 7-16 4-10 3-2 25 10 11 2h15l7-4 7-14 5-13 7-13z" fill="#666667"/>
<path transform="translate(1592,1764)" d="m0 0m-7 1h7v2l-15 4-16 9-16 8-7 5-12 4-11 1-5 3-1 2 1 13 4 5v2l5 1 5 6 3 2v2h2v2h2v2l4 2v2l4 2 14 11 9 6 21 10 10 3 12 2 25 3h33l22-1 14-2 15-2 23-5 25-4 5 1v1l-39 6-20 5-69 11-11-1-11-5-5-1h-11l-17-3-16-6-15-8-14-10-12-11-13-13-7-9-3-7-3-5v-12l2-5 4-3 6-1v-2l13-4 14-6 19-6z" fill="#69696A"/>
<path transform="translate(449,612)" d="m0 0 1 3-8 12-7 10-8 12-12 13-7 5-1 2-11 2h-8l-14-4h-15l-10 8-4 5-4 6-9 19-4 12-1 5v8l7 8 6 7 6 8-5-2-8-5-16-6-15-5-1-4 10-17 10-16 12-19 10-16 7-12 5-7 3-2 5 1 9 6 11 9 7 4 8 4h8l9-8 15-22 12-14z" fill="#676768"/>
<path transform="translate(1618,1683)" d="m0 0h76l21 3 23 6 16 6 17 8 16 9 18 12 20 14 10 8 12 11 13 12 13 13 7 8 11 13 13 18 4 7-3-1-6-8-4-5v-2h-2l-4-7-4-5v-2h-2l-7-8-20-20-3-2v-2l-4-2-5-4-5-5-7-5v-2l-4-2-13-11-6-5-3-1v-2l-5-1-14-8-16-9-21-9-11-4-6-2-9-2-15-4-14-3-23-2-24-1-36 2-15 2-18 4-12 4-18 8-14 7-11 7h-2l-1 3-17 13-7 6h-3v2l-4 1 1 3-1 4 15-1-3 2-30 9-12 4h-4l2-5 11-9 16-13 15-12 21-13 15-8 25-10 22-7 20-4z" fill="#7F7F80"/>
<path transform="translate(290,1157)" d="m0 0 2 4 4 27v12l-2 9-2 3h-2l-1 3-7 6-9 6-13 5-5 5-3 5-3 10v8l9 31 6 12 8 6 3 1h18l-4 3-11 5-7 2h-6l-8-5-7-12-2-9 1-25-5-12-4-8-1-3-1-14v-14l31-4 12-4 6-5 3-7z" fill="#686869"/>
<path transform="translate(588,1551)" d="m0 0 6 1 24 10 10 4 24 9 18 6 24 7 27 6 12 3 32 5 28 4 15 2 13 1h49l14-1 5-2-2-3-19-6-17-5-30-10-31-12-8-3v-2l12 3 46 16 32 8 17 6 17 5 5 3-1 3-6 2-21 2h-64l-24-2-31-4-40-7-47-12-32-11-27-11-28-13z" fill="#949B97"/>
<path transform="translate(592,481)" d="m0 0h1v7l-4 9-7 9-3 1-5 6-9 7-14 8-12 4h-9l-3-1-5-5-9-7v-2l-4-2-4-4-9-4-13 2-9 5-7 6h-2v2h-2v2l-5 4-1 2h-2v2h-3l-2 4-9 9h-2v3h-2l-2 5-3 15v9l6 9-4-2-15-11-5-3 2-6 12-13 17-16 31-31 10-8 7-2 9 5 7 6 8 11 11 12 3 2 5-1 10-6 7-7 14-11 15-13 8-7z" fill="#797A7A"/>
<path transform="translate(289,978)" d="m0 0h1l-1 15-2 6-2 16-2 6-14 7-10 3-17 3-7 3-4 5-2 3-3 12-3 4v20l1 11 1 1 2 10 1 10 3 6 32 1v1h-43l-1-1v-99l1-4 46 1 11-1 2-1 9-33z" fill="#666667"/>
<path transform="translate(494,506)" d="m0 0 7 2 6 4 6 5v2l4 2 10 8-2 1-12-7-3-1v-2l-9-2h-13l-9 4-8 5-7 8-8 10h-2v2l-5 5-6 10-1 7 2 9 4 7 4 8 1 10-4-5-7-8-5-5-5-6-1-2v-9l3-15 3-5h2v-3l6-5h2l2-4 3-4h3v-2h2l1-3h2l1-3h2v-2h2v-2l10-8 9-4z" fill="#666667"/>
<path transform="translate(1511,485)" d="m0 0 6 2 10 9 7 8 17 17 11 9 15 14 6 8 1 7-7 8-2 1 1-10-5-8-16-16-10-8v-2l-4-2-6-5-5-5-10-7-10-2-9 2v2h-2v2l-9 7h-2l-1 3-4 1-2 4-7 6-2 1h-8v-3h4l11-12 8-7 12-13 7-8z" fill="#777778"/>
<path transform="translate(1343,373)" d="m0 0 5 1 17 11 9 6 52 26 6 5 1 3-7 11-1-2-1-6 1-2h-2v-3l-4-2-3-2v-2l-4-2-9-5-12-6-1-2-6-2-14-7-8-2h-14l-9 6-2 3h-2l-2 4-11 11-8 11-3 3-6 1-9-3-14-5-10-5-19-9-3-1v-2l8 1 23 10 17 8 4 3 5-1 5-6 9-16 6-11 12-17z" fill="#79797A"/>
<path transform="translate(1147,309)" d="m0 0h10l31 6 28 7 16 5 11 4 4 5-1 13-2-1-5-10-1-3-21-7-12-3-24-3-12-1-11 1-3 3h-2l-2 4-5 8-7 24-4 6-3 2-9 1-31-2-5-1v-2l-13-1v-1h24l24 2h6l4-2 5-15 6-27 3-10z" fill="#787879"/>
<path transform="translate(1463,827)" d="m0 0v3l-16 16-8 7-5 5-3 1-2 4-11 9-4 4h-2v2l-10 8-5 5-5 4-6 8-10 8-12 12-9 11-7 9-3 7 4 2 14-8 2 1-14 12-11 10-11 9-12 9-9 6-2-1 8-12 11-13 9-11 12-16 8-11 9-10 7-8 12-12 8-7 9-9 11-9 12-10 10-8 11-9 14-12z" fill="#969998"/>
<path transform="translate(1613,1754)" d="m0 0h21l29 3 27 4v1h-62l-21 1-15 2-21 4-26 7-24 10-8 1v2l-9 4-2 7v10l5 8-1 3-10-15-3-6 1-5 8-7 16-8 25-9 31-9 24-6z" fill="#848586"/>
<path transform="translate(1599,1686)" d="m0 0h7l-2 2-25 5-12 4-18 8-14 7-11 7h-2l-1 3-17 13-7 6h-3v2l-4 1 1 3-1 4 15-1-3 2-30 9-12 4h-4l2-5 11-9 16-13 15-12 21-13 15-8 25-10 16-4z" fill="#7C7D7E"/>
<path transform="translate(946,291)" d="m0 0h22l62 2 17 1 2 2v27h-1l-1-24-2-2h-43l-29 1-5 5h-2l-1 3-7 6-5 9-4 13-2 20h-2l-1 3v-47l1-18z" fill="#676768"/>
<path transform="translate(347,781)" d="m0 0 1 3-5 7-9 26-7 15-5 4-2 1h-10l-14-3-21-1-10 6-5 1-2 6-1 7-5 12-4 20-4 13-2 14 3 9 2 2h-12l-2-3 15-47 1-13 3-13 7-16 4-10 3-2 25 10 11 2h15l7-4 7-14 5-13 7-13z" fill="#79797A"/>
<path transform="translate(1546,609)" d="m0 0 2 3 7 11 22 26 9 11 9 6 7-1 11-8 12-9 13-8 4-2h6l6 7 7 12 8 14 9 17v5l-4 6-1-3v-6l-5-13-11-17-6-4-10-2h-6l-9 5-14 7-13 4h-8l-4-3v-2l-3-1-9-11-7-9-9-11-7-10-6-10z" fill="#7B7B7C"/>
<path transform="translate(654,378)" d="m0 0h7l10 23 2 5-4-4-2-3-9-3-11-1-7 1-12 6-4 3-5 2-4 3-7 2-11 7h-2v2l-7 5-6 12-1 15-12-15-1-3 6-8 17-10 19-11 11-7 14-10 15-9z" fill="#7A7A7B"/>
<path transform="translate(1276,609)" d="m0 0 5 2 21 12 12 7 3 3v2l4 2 3 2v2l4 2 11 9 8 6 11 9 10 8 3 5 3 2v2l4 2 6 5v3l4 2 4 4v2l5 2v2h2l3 3v3l4 2 6 7 3 1v4l4 2 4 3v3h2l1 4 4 2 6 7v3l3 1 14 22 5 10 3 3 4 10 3 9 1 7v9l-1 3h-2v-13l-5-13-11-20-12-19-9-12-11-13-9-10-7-8-47-47-8-7-12-10-17-13-18-13-24-16z" fill="#6F7071"/>
<path transform="translate(315,1307)" d="m0 0 5 1 7 5 11 17 6 8v2h2l9 11 9 10 7 9 12 14 7 9v2l3 1 7 11 10 11v2l4 2 4 5 8 7 2 4 5 2v2l4 2 4 4v2l4 2 14 12 10 8v2l4 2 10 8 8 6 4 4v2l-4-2-12-9-11-9-10-8v-2l-4-1-15-13-17-16-20-20-7-8-10-11-9-11-11-13-13-18-24-34-7-9-6-4z" fill="#838384"/>
<path transform="translate(1012,529)" d="m0 0h14l23 3h13l19 2 31 5 21 4 30 8 10 4 21 7 6 4 7 3v2l6 1 18 10 12 6-1 2-26-13-24-10-35-12-20-5-24-4-18-5-7-1-27-2-18-2-17-4-14-2z" fill="#6E6E6F"/>
<path transform="translate(1570,1739)" d="m0 0h56l25 3 44 9 12 5 2 5-9-2-21-5-36-5-37-4-17-1-58 1v-1l20-3z" fill="#7A7A7B"/>
<path transform="translate(839,308)" d="m0 0h8l3 10v2l-5-2-4-2-7-1-15 4-11 5-7 2-10 4-8 5-7 3-11 7-2 3h-2l-2 5-3 1 1 15-2-3-5-12-5-10 1-6 8-4 24-6 57-19z" fill="#7B7B7C"/>
<path transform="translate(1544,605)" d="m0 0 2 2 2 8 11 17 7 8 16 20 7 8 2 1h8l15-5 7-4 5-2 10-5 10 1 9 3 5 6 10 16 4 11-1 10-12 14-4 4v-3l2-3h2l2-5h2l3-9 1-7-3-11h-2v-2h-2l-3-5v-3l-5-2v-2h-2v-2l-13-1-7 1-10 4-10 3-18 2-4-1-8-7-8-10-3-4v-2l-4-2-6-8-3-3-7-10-6-12z" fill="#666667"/>
<path transform="translate(1463,829)" d="m0 0v3l-8 10h-2v2h-3l-2 4-6 7h-2v2l-4 1-2 4-5 4-4 5-2 1-1 3h-3l-2 4-9 8-9 7h-2v2l-3 3h-2l-2 4-11 11h-2l-2 4-4 4h-2l-2 4-8 8-2 3 1 4h4l14-8 14-9 6-4 3 1-16 11-17 12-12 6-5 3-4-2-1-2 3-6 18-22 7-7 8-7 4-4h2l2-4 4-5 7-6h2l2-4 7-6h2v-2l8-7 10-8 6-7 8-7 10-9z" fill="#777778"/>
<path transform="translate(564,1388)" d="m0 0 5 5 9 11 14 15 12 13 36 36 8 7 15 15 11 9 20 14 15 10 22 13 28 17-3 1-18-10-35-21-15-10-10-8-16-12-9-7-8-6-3-3v-2l-4-2-36-36-9-11-8-10-7-8-11-14-3-4z" fill="#A5A9A7"/>
<path transform="translate(289,978)" d="m0 0h1l-1 15-2 6-2 16-3 5-5 2-8 1-35 1-9 5h-3l-1 10v33l1 48 4 1h-6l-1-1v-99l1-4 46 1 11-1 2-1 9-33z" fill="#7C7C7D"/>
<path transform="translate(290,1157)" d="m0 0 2 4 2 13v29l-5 8-12 6-12 4-10 4-7 2-2 4-3 1 1 12 2 15-4-5-3-8-1-14v-14l31-4 12-4 6-5 3-7z" fill="#7B7B7C"/>
<path transform="translate(1141,1356)" d="m0 0h1l-1 11-1 12v63l1 15-4-5-5-10-1-21v-35l3-15 6-12z" fill="#8BC5A2"/>
<path transform="translate(1527,1301)" d="m0 0v3l-11 14-10 11-9 11-7 7-7 8-9 9-6 5h-2v2l-8 7-30 28-13 11-14 10-17 12-11 8-15 11-2-1 9-8 10-8 17-12 13-10 16-13 17-14 7-7h2l2-4h2v-2l6-5 13-13 10-8 4-2 2-4 3-1 2-4 6-7h2l2-4 8-8 5-7h2l2-4z" fill="#60BA83"/>
<path transform="translate(1777,706)" d="m0 0h3l2 5 2 16-2-3-1-2-4 1-8 3-5 5-10 13-8 10-12 14-7 8-11 12-18 18-8 7-8 8-8 7-6 6-2-1 15-15 6-5 5-5 14-15 10-10 7-8 11-12 9-11 10-13 12-17 8-12z" fill="#91C8A7"/>
<path transform="translate(757,370)" d="m0 0 2 1 2 7v20l-9 11-10 7-22 9-12 4h-7l-7 1-4-2 10-3 13-8 17-9 25-7 3-3 1-8z" fill="#676768"/>
<path transform="translate(1511,485)" d="m0 0 6 2 10 9 7 8 17 17 11 9 15 14 6 8 1 7-4 4-1-7-6-9-8-9-7-6v-2l-3-1v-2l-4-2-15-15-8-7-11-7-8-1-6 3-7 7-5 4-2 3h-2v2h-2v2l-5 5-7 6-4 1 6-8 15-14 7-8 9-10z" fill="#9FA1A1"/>
<path transform="translate(293,1181)" d="m0 0h2l1 9v10l-2 9-2 3h-2l-1 3-7 6-9 6-13 5-5 5-3 5-3 10-1 8-2 1-2-8-2-17 1-4 7-6 14-5 10-4 12-5 5-5 2-4z" fill="#666667"/>
<path transform="translate(592,481)" d="m0 0h1v7l-4 9-7 9-3 1-5 6-9 7-14 8-9 3-8 1v-2l9-5 10-9 14-11 15-13 8-7z" fill="#666667"/>
<path transform="translate(1147,309)" d="m0 0h10l31 6 28 7 16 5 6 2-4 1-32-9-20-4-10-1-2-1-13-1-4 3h-2v2l-4 4-4 11-5 24-4 8-4 2h-38l-5-1v-2l-13-1v-1h24l24 2h6l4-2 5-15 6-27 3-10z" fill="#9FA1A1"/>
<path transform="translate(358,642)" d="m0 0 5 1 9 6 11 9 7 4 4 2-3 1-20-7-4-2h-10l-7 5-1 2h-2l-2 5-1 2h-2l-2 5-10 17-6 8-5 5-1 2-2-1 15-24 11-17 6-11 7-10z" fill="#7D7D7E"/>
<path transform="translate(941,361)" d="m0 0h2v2l-9 6-16 4h-22l-10-1h-13l-7-1-1-2h10l18-4 31-3z" fill="#676768"/>
<path transform="translate(1613,1754)" d="m0 0h21l29 3 7 1v1h-24l-40 2-23 3-20 5-15 4-5-1 4-2 23-7 28-7z" fill="#A8ABAA"/>
<path transform="translate(1584,1741)" d="m0 0h37l33 4 23 5 18 5 1 2-12-2-33-5-45-5-17-1h-28l1-2z" fill="#A0A2A2"/>
<path transform="translate(265,819)" d="m0 0 16 6 10 4v1l-8-1-3-1h-11l-8 4-6 14-3 12v7l-4 20-4 13-2 14 3 9 2 2h-12l-2-3 15-47 1-13 3-13 7-16 4-10z" fill="#7F7F80"/>
<path transform="translate(1521,1713)" d="m0 0 2 1-14 11-3 3h-3v2l-11 7-9 9-4 6-1 4 3 2-21 7h-4l2-5 11-9 16-13 15-12z" fill="#999B9B"/>
<path transform="translate(1809,1731)" d="m0 0 5 2 19 14 15 14 12 11 13 13 7 8 11 13 13 18 4 7-3-1-6-8-4-5v-2h-2l-4-7-4-5v-2h-2l-7-8-20-20-3-2v-2l-4-2-5-4-5-5-7-5v-2l-4-2-13-11-6-5z" fill="#868787"/>
<path transform="translate(1343,373)" d="m0 0 5 1 17 11 2 2-5-1-12-4h-7l-9 10-8 13-9 13-4 6-4 3-2-1 5-6 9-16 6-11 12-17zm-38 54 2 1z" fill="#A3A5A5"/>
<path transform="translate(1911,1836)" d="m0 0 4 4 7 12 1 6h-25l-51-2v-1l21-2h19l16 1 7-2 3-4 1-4-3-6z" fill="#808182"/>
<path transform="translate(1628,1761)" d="m0 0h36l34 1 7 1h10v3h-17l-20-1h-70l-5 1h-11l1-2 14-2z" fill="#686869"/>
<path transform="translate(1271,1120)" d="m0 0 2 1-8 8h-2v2l-8 7-11 12-7 8-8 9-11 14-8 11-16 24-12 20-12 24-1-3 8-17 10-18 16-25 10-14 10-13 10-11 7-8 9-10 15-15z" fill="#8DC6A4"/>
<path transform="translate(1646,1758)" d="m0 0 30 1 14 2v1h-62l-21 1-15 2-21 4-7 2h-5l1-2 19-5 17-3 25-2z" fill="#79797A"/>
<path transform="translate(1138,1363)" d="m0 0 1 4-2 22-1 35-1 5v17l-3-4-1-21v-35l3-15z" fill="#FDFDFD"/>
<path transform="translate(1054,362)" d="m0 0 20 1 13 2v2l38 2h6v2l-8 3h-22l-10-2-9-2-11-3-15-3z" fill="#666667"/>
<path transform="translate(1642,638)" d="m0 0h6l6 7 14 24-2 1-8-14-4-5-9-4h-6l-9 3-15 9-6 2 5-5 14-10z" fill="#A2A4A3"/>
<path transform="translate(314,710)" d="m0 0h2l1 9v18l2 1v2l-11-3-7-3 1-5 9-15z" fill="#79797A"/>
<path transform="translate(946,291)" d="m0 0h22l62 2 17 1v1l-100 1-2 1v-5z" fill="#B6B8B7"/>
<path transform="translate(947,295)" d="m0 0h101l1 1v27h-1l-1-24-2-2h-94l-2 10-3 4-1 42h-1v-43l1-13z" fill="#909192"/>
<path transform="translate(592,481)" d="m0 0 1 3-6 7-2 4h-2l-2 4-3 1v2l-8 7-5 4h-2v2l-12 9-14 7-3-1 9-5 10-9 14-11 15-13 8-7z" fill="#858586"/>
<path transform="translate(221,1081)" d="m0 0h2l1 11 1 1 2 10 1 10 3 6 32 1v1h-37l-4-1-1-8z" fill="#676768"/>
<path transform="translate(1343,961)" d="m0 0 2 1-12 11-13 10-12 8-2-1 8-12 11-13 3-3-2 5-4 7 8-4 11-7z" fill="#FDFDFD"/>
<path transform="translate(677,1502)" d="m0 0 7 4 20 14 27 16 28 17-3 1-18-10-35-21-15-10-10-8z" fill="#A1A2A2"/>
<path transform="translate(249,1275)" d="m0 0h2l6 32 2 5h2v2l4 2 13 1-3 2-10 1-8-5-7-12-2-9z" fill="#868687"/>
<path transform="translate(775,329)" d="m0 0 2 1-3 2-10 3-8 8-3 10v3h-2l-6-12 1-6 8-4z" fill="#979898"/>
<path transform="translate(924,362)" d="m0 0h15l-3 2-12 3-23 2-26 1 3-2 15-3z" fill="#7B7B7C"/>
<path transform="translate(283 1e3)" d="m0 0h1l-1 16-4 3-5 1h-52l-1 1-1 9h-1v-10l1-4 46 1 11-1 2-1z" fill="#999B9B"/>
<path transform="translate(1276,609)" d="m0 0 5 2 21 12 12 7 3 3v2l4 2 3 2v2l4 2 11 9 2 4-9-6-15-12-23-16-18-12z" fill="#727273"/>
<path transform="translate(449,612)" d="m0 0 1 3-8 12-7 10-8 12-12 13-9 6 1-3 8-7 15-22 12-14z" fill="#8F8F90"/>
<path transform="translate(265,819)" d="m0 0 16 6 10 4v1l-8-1-3-1h-11l-8 4-6 14-4 17h-2l2-13 8-19 4-10z" fill="#A4A6A6"/>
<path transform="translate(1250,405)" d="m0 0 8 1 23 10 17 8 7 4v1l-7-1-16-6-10-5-19-9-3-1z" fill="#868687"/>
<path transform="translate(452,528)" d="m0 0v3l-25 25-3 8-1 6 3 5v3l-12-8 2-6 12-13 17-16z" fill="#A2A5A4"/>
<path transform="translate(1409,487)" d="m0 0 9 6 16 13 10 9 10 7 8 5v2l-5-2-16-10-7-6-9-7v-2l-5-2v-2l-5-2v-2l-4-2z" fill="#868788"/>
<path transform="translate(452,604)" d="m0 0h1v7l-4 9-14 22-2 4h-2l-2 5-11 11-8 6-3-1 10-8 10-11 11-17 7-10 4-6z" fill="#666667"/>
<path transform="translate(346,1346)" d="m0 0 4 2 7 9 13 16 11 14 10 13 3 4-1 2-13-15-11-13-15-20-8-11z" fill="#A3A4A4"/>
<path transform="translate(744,404)" d="m0 0 4 1-34 16-15 7-4-1 8-4 16-9 14-7z" fill="#8D8E8F"/>
<path transform="translate(1618,1683)" d="m0 0h30v2l-42 2-13 1-19 5-8 1 4-2 21-6 12-2z" fill="#999B9B"/>
<path transform="translate(339,1407)" d="m0 0 2 1-16 16-10 14-1 3 5 9 10 14-2 4-7-11-9-13 1-6 6-9 11-12z" fill="#FDFDFD"/>
<path transform="translate(654,378)" d="m0 0h7l5 12-1 2-1-3-10-2h-14l3-3zm-16 9 2 1z" fill="#A6A8A8"/>
<path transform="translate(491,494)" d="m0 0 6 2 9 6 8 10-1 2-6-7-16-8-7 1-17 16-2-1 11-11 10-8z" fill="#A4A5A5"/>
<path transform="translate(1903,1593)" d="m0 0 3 1-30 13-37 13-16 5-4-1 44-15 28-11z" fill="#DBDBDB"/>
<path transform="translate(1e3 296)" d="m0 0h41l3 3v18l-8-16v-2l-9-1-27-1z" fill="#666667"/>
<path transform="translate(622,685)" d="m0 0 3 1-18 18-7 8-8 8-7 8-4 4v-3l9-11 9-9 7-8h2l1-4 9-8z" fill="#777778"/>
<path transform="translate(1406,875)" d="m0 0 2 1-10 10-8 7-29 29-7 8v-3l9-10 7-8 12-12 8-7 9-9z" fill="#FDFDFD"/>
<path transform="translate(314,710)" d="m0 0h2l-2 4-3 8-1 8 2 6 1 2-11-3-1-4 10-17z" fill="#989A9A"/>
<path transform="translate(1207,1193)" d="m0 0v3l-7 11-10 15-10 18-10 20-1-3 8-17 10-18 16-25z" fill="#8CC5A2"/>
<path transform="translate(263,1215)" d="m0 0 4 1-14 4-8 4h-2v2h-2l-1 7-2-1v-14z" fill="#A2A4A4"/>
<path transform="translate(961,295)" d="m0 0h87l1 1v27h-1l-1-24-2-2h-84z" fill="#828383"/>
<path transform="translate(1074,363)" d="m0 0h24l15 2 3 2-11 1h-13l-5-1v-2l-13-1z" fill="#838585"/>
<path transform="translate(288,936)" d="m0 0 4 2 4 7v9l-4 21-2 1 1-17v-13z" fill="#757676"/>
<path transform="translate(1718,1687)" d="m0 0 17 4 19 7 17 8v2l-6-2-18-8-28-8z" fill="#A1A4A3"/>
<path transform="translate(1139,340)" d="m0 0h2l-1 9-3 12-3 5-4 2h-14v-2l-3-1h15l4-2 5-15z" fill="#A1A2A2"/>
<path transform="translate(1498,851)" d="m0 0 4 1-17 12-21 14v-3l11-8 4-4 7-4 10-7z" fill="#6F7070"/>
<path transform="translate(1546,609)" d="m0 0 2 3 7 11 22 26h-3l-8-7-7-9-7-10-6-10z" fill="#878788"/>
<path transform="translate(461,1086)" d="m0 0h1l4 53v5l-2-4-3-20-1-14z" fill="#838384"/>
<path transform="translate(330,815)" d="m0 0 1 4-3 5-3 8-4 3-6 1-12-3 3-2h11l7-4z" fill="#AAACAC"/>
<path transform="translate(527,1329)" d="m0 0 3 4 10 19 14 21 1 3-4-2-9-13-6-12-8-13z" fill="#8C8D8D"/>
<path transform="translate(957,533)" d="m0 0 3 1-4 3-20 1-14 1h-11v-1l20-3z" fill="#707172"/>
<path transform="translate(347,781)" d="m0 0 1 3-5 7-9 26-1 2h-2l1-9 5-12 6-11z" fill="#828283"/>
<path transform="translate(358,642)" d="m0 0 5 1 9 6 5 5-4-1-12-5-7-1 1-3zm-5 5 1 2-4 6-2-1z" fill="#A7A8A8"/>
<path transform="translate(580,423)" d="m0 0 2 1h-3zm-3 2 2 1-3 4v16l-5-5-3-6 6-8z" fill="#9CA09F"/>
<path transform="translate(1148,1312)" d="m0 0 1 4-4 20-2 19h-1l-1-14 1-10 5-16z" fill="#8EC6A5"/>
<path transform="translate(290,1157)" d="m0 0 2 4 2 13v29l-1 2-2-1 1-3v-9l-2-23z" fill="#777778"/>
<path transform="translate(1404,407)" d="m0 0 6 2 19 10 4 5-2 5-2-1-2-6-10-6-13-8z" fill="#B2B6B5"/>
<path transform="translate(332,681)" d="m0 0 2 4-8 13-5 4-3 5-2-1 15-24z" fill="#8E8F90"/>
<path transform="translate(1271,1120)" d="m0 0 2 1-8 8h-2v2l-8 7-11 12h-2l2-4 20-20z" fill="#8BC5A2"/>
<path transform="translate(220,1017)" d="m0 0 34 1v1l-32 2-1 1-1 9h-1v-10z" fill="#BEC1C0"/>
<path transform="translate(924,362)" d="m0 0h5l-1 2-27 3h-13v-1l23-3z" fill="#A6A7A7"/>
<path transform="translate(1470,1750)" d="m0 0 2 1-4 5-2 5v2l-6 2h-4l2-5 11-9z" fill="#FDFDFD"/>
<path transform="translate(289,978)" d="m0 0h1l-1 15-2 6-3 15h-2l2-16z" fill="#969898"/>
<path transform="translate(1648,1683)" d="m0 0 39 1 8 2v1l-23-1-22-1z" fill="#777778"/>
<path transform="translate(1572,648)" d="m0 0 5 2 4 7 10 9 8 2v2h-8l-4-3v-2l-3-1-9-11z" fill="#777778"/>
<path transform="translate(1651,1683)" d="m0 0h43l9 1-2 2h-8l-6-1-36-1z" fill="#8E9090"/>
<path transform="translate(1710,1875)" d="m0 0 4 1-12 3-17 2 1-3 13-2z" fill="#717172"/>
<path transform="translate(492,1254)" d="m0 0 2 3 11 27 1 3-3-1-5-10-6-18z" fill="#727474"/>
<path transform="translate(449,612)" d="m0 0 1 3-8 12-6 8-4 2 2-6 10-11z" fill="#7C7C7D"/>
<path transform="translate(1054,362)" d="m0 0 20 1 13 2v1h-14l-2 1-15-3z" fill="#757576"/>
<path transform="translate(1814,1460)" d="m0 0 4 1-29 9-15 6-3-1 14-6 25-8z" fill="#FDFDFD"/>
<path transform="translate(1599,1686)" d="m0 0h7l-2 2-35 7 2-2 18-5z" fill="#777778"/>
<path transform="translate(1622,1884)" d="m0 0 31 2v1l-18 2-10-2z" fill="#8A8A8B"/>
<path transform="translate(452,528)" d="m0 0v3l-23 23-2-2 7-7 8-7z" fill="#959696"/>
<path transform="translate(757,370)" d="m0 0 2 1 2 7v20l-2 3-2-1 2-10z" fill="#8B8B8C"/>
<path transform="translate(1457,880)" d="m0 0 3 1-15 10-7 4 1-4 13-8z" fill="#767677"/>
<path transform="translate(622,685)" d="m0 0 3 1-17 17-2-2h2l1-4 9-8z" fill="#6B6B6C"/>
<path transform="translate(1498,851)" d="m0 0 4 1-17 12-3 1 2-4 5-4z" fill="#757576"/>
<path transform="translate(1811,865)" d="m0 0 5 5v26h-1l-2-21-1-7z" fill="#65BB87"/>
<path transform="translate(289,985)" d="m0 0h1v10l-3 17-2 7-2-1 2-7 1-12 2-6z" fill="#69696A"/>
<path transform="translate(291,1182)" d="m0 0h1l1 10v9l-1 3-8 6 6-12z" fill="#A5A8A7"/>
<path transform="translate(1396,920)" d="m0 0 3 1-16 11-7 4 2-4 10-7z" fill="#838484"/>
<path transform="translate(237,908)" d="m0 0 2 1-1 12 5 1v1h-8l-2-3z" fill="#A8ACAA"/>
<path transform="translate(839,308)" d="m0 0h8l1 4-10-1-12 3-4-1z" fill="#A9AAAA"/>
<path transform="translate(1564,635)" d="m0 0 5 4 8 10h-3l-8-7-3-5z" fill="#909292"/>
<path transform="translate(257,837)" d="m0 0 1 2-3 7-4 17h-2l2-13 5-12z" fill="#ABADAD"/>
<path transform="translate(283 1e3)" d="m0 0h1l-1 16-4 3h-5l3-3 2-1z" fill="#C8C9C9"/>
<path transform="translate(1130,364)" d="m0 0 2 1-2 3h-14v-2l-3-1h15z" fill="#ADAFAF"/>
<path transform="translate(1218,1178)" d="m0 0v3l-8 11-3 1 2-5z" fill="#8DC6A4"/>
<path transform="translate(1463,827)" d="m0 0v3l-16 16-2-1 6-7 8-7z" fill="#B1B2B2"/>
<path transform="translate(1577,651)" d="m0 0 7 6 5 5 6 4v2l-5-2-10-9-3-4z" fill="#A6A7A7"/>
<path transform="translate(452,604)" d="m0 0h1v7l-4 9-2 3h-2l2-5 2-3z" fill="#6A6B6B"/>
<path transform="translate(957,533)" d="m0 0 3 1-4 3h-13l2-3z" fill="#737475"/>
<path transform="translate(251,862)" d="m0 0 1 3-3 15-3 2 2-9v-7l1-3z" fill="#8C8D8D"/>
<path transform="translate(341,670)" d="m0 0v3l-6 10h-2l1-5 3-5z" fill="#818182"/>
<path transform="translate(422,652)" d="m0 0v3l-8 8-8 5 1-3 8-7z" fill="#8C8C8D"/>
<path transform="translate(751,335)" d="m0 0 2 1-3 1-2 11-3-4 1-6z" fill="#FDFDFD"/>
<path transform="translate(1087,363)" d="m0 0h11l11 1v1l-5 1h-10v-2h-7z" fill="#C2C3C3"/>
<path transform="translate(527,1329)" d="m0 0 3 4 6 13-3-1-6-12z" fill="#868888"/>
<path transform="translate(1207,1193)" d="m0 0v3l-7 11-3 1 2-5 7-9z" fill="#91C8A7"/>
<path transform="translate(1686,1683)" d="m0 0 17 1-2 2h-8l-7-2z" fill="#B0B3B2"/>
<path transform="translate(289,978)" d="m0 0h1l-1 15-1 5-2-3 1-8z" fill="#8C8C8D"/>
<path transform="translate(1718,1687)" d="m0 0 13 3v2l-9-1-3-1z" fill="#A7A9A9"/>
<path transform="translate(567,747)" d="m0 0h2l-2 4-6 9-1-3 6-9z" fill="#7E7E7F"/>
<path transform="translate(449,612)" d="m0 0 1 3-6 9-6 4 2-4 6-7z" fill="#838384"/>
<path transform="translate(708,420)" d="m0 0 2 1-4 4-7 3-4-1 8-4z" fill="#939494"/>
<path transform="translate(304,726)" d="m0 0h1l1 8 1 2-6-2 1-5z" fill="#FDFDFD"/>
<path transform="translate(589,720)" d="m0 0 1 3-8 9-2-2z" fill="#727273"/>
<path transform="translate(1665,706)" d="m0 0 1 2-8 10-2-2 3-4h2l2-5z" fill="#777778"/>
<path transform="translate(1427,419)" d="m0 0 4 2 2 4-3 4-3-7z" fill="#ACAFAE"/>
<path transform="translate(1571,1766)" d="m0 0m-5 1h5v2l-7 2h-5l1-2z" fill="#777778"/>
<path transform="translate(431,1588)" d="m0 0 3 2v2h2l4 5 2 1-1 3-10-10z" fill="#71BE8F"/>
<path transform="translate(1457,880)" d="m0 0 3 1-10 7h-2l2-4z" fill="#848585"/>
<path transform="translate(1227,1167)" d="m0 0v3l-7 8h-2l2-4z" fill="#8BC5A2"/>
<path transform="translate(1331,646)" d="m0 0 8 6 2 4-9-6z" fill="#737575"/>
<path transform="translate(1080,1568)" d="m0 0h2v2l-5 2z" fill="#FDFDFD"/>
<path transform="translate(1051,1591)" d="m0 0 2 1h-3z" fill="#FDFDFD"/>
<path transform="translate(1054,1589)" d="m0 0 2 1h-3z" fill="#FDFDFD"/>
<path transform="translate(1140,1562)" d="m0 0 2 2-3-1z" fill="#FDFDFD"/>
<path transform="translate(1818,1459)" d="m0 0 4 1z" fill="#FDFDFD"/>
<path transform="translate(1822,1458)" d="m0 0 4 1z" fill="#FDFDFD"/>
<path transform="translate(1826,1457)" d="m0 0 4 1z" fill="#FDFDFD"/>
<path transform="translate(1809,1627)" d="m0 0 3 1z" fill="#FDFDFD"/>
<path transform="translate(1816,1625)" d="m0 0 3 1z" fill="#FDFDFD"/>
<path transform="translate(1831,1456)" d="m0 0 3 1z" fill="#FDFDFD"/>
<path transform="translate(1813,1626)" d="m0 0 2 1z" fill="#FDFDFD"/>
<path transform="translate(1048,1593)" d="m0 0 2 1z" fill="#FDFDFD"/>
<path transform="translate(1906,1592)" d="m0 0 2 1z" fill="#FDFDFD"/>
<path transform="translate(1908,1591)" d="m0 0 2 1z" fill="#FDFDFD"/>
<path transform="translate(1057,1587)" d="m0 0 2 1z" fill="#FDFDFD"/>
<path transform="translate(1071,1576)" d="m0 0 2 1z" fill="#FDFDFD"/>
<path transform="translate(1083,1566)" d="m0 0 2 1z" fill="#FDFDFD"/>
<path transform="translate(1748,1488)" d="m0 0 2 1z" fill="#FDFDFD"/>
<path transform="translate(1751,1486)" d="m0 0 2 1z" fill="#FDFDFD"/>
<path transform="translate(1754,1484)" d="m0 0 2 1z" fill="#FDFDFD"/>
<path transform="translate(1756,1483)" d="m0 0 2 1z" fill="#FDFDFD"/>
<path transform="translate(1758,1482)" d="m0 0 2 1z" fill="#FDFDFD"/>
<path transform="translate(1761,1480)" d="m0 0 2 1z" fill="#FDFDFD"/>
<path transform="translate(1763,1479)" d="m0 0 2 1z" fill="#FDFDFD"/>
<path transform="translate(1765,1478)" d="m0 0 2 1z" fill="#FDFDFD"/>
<path transform="translate(1767,1477)" d="m0 0 2 1z" fill="#FDFDFD"/>
<path transform="translate(1769,1476)" d="m0 0 2 1z" fill="#FDFDFD"/>
<path transform="translate(372,1387)" d="m0 0 2 1z" fill="#FDFDFD"/>
<path transform="translate(1807,1628)" d="m0 0" fill="#FDFDFD"/>
<path transform="translate(1056,1588)" d="m0 0" fill="#FDFDFD"/>
<path transform="translate(1059,1586)" d="m0 0" fill="#FDFDFD"/>
<path transform="translate(1060,1585)" d="m0 0" fill="#FDFDFD"/>
<path transform="translate(1062,1584)" d="m0 0" fill="#FDFDFD"/>
<path transform="translate(1068,1579)" d="m0 0" fill="#FDFDFD"/>
<path transform="translate(1069,1578)" d="m0 0" fill="#FDFDFD"/>
<path transform="translate(1070,1577)" d="m0 0" fill="#FDFDFD"/>
<path transform="translate(1073,1575)" d="m0 0" fill="#FDFDFD"/>
<path transform="translate(1074,1574)" d="m0 0" fill="#FDFDFD"/>
<path transform="translate(1075,1573)" d="m0 0" fill="#FDFDFD"/>
<path transform="translate(1076,1572)" d="m0 0" fill="#FDFDFD"/>
<path transform="translate(1082,1567)" d="m0 0" fill="#FDFDFD"/>
<path transform="translate(1085,1565)" d="m0 0" fill="#FDFDFD"/>
<path transform="translate(1087,1564)" d="m0 0" fill="#FDFDFD"/>
<path transform="translate(1088,1563)" d="m0 0" fill="#FDFDFD"/>
<path transform="translate(1739,1495)" d="m0 0" fill="#FDFDFD"/>
<path transform="translate(1742,1493)" d="m0 0" fill="#FDFDFD"/>
<path transform="translate(1743,1492)" d="m0 0" fill="#FDFDFD"/>
<path transform="translate(1744,1491)" d="m0 0" fill="#FDFDFD"/>
<path transform="translate(1746,1490)" d="m0 0" fill="#FDFDFD"/>
<path transform="translate(1747,1489)" d="m0 0" fill="#FDFDFD"/>
<path transform="translate(1750,1487)" d="m0 0" fill="#FDFDFD"/>
<path transform="translate(1753,1485)" d="m0 0" fill="#FDFDFD"/>
<path transform="translate(1760,1481)" d="m0 0" fill="#FDFDFD"/>
<path transform="translate(1915,1459)" d="m0 0" fill="#FDFDFD"/>
<path transform="translate(339,1459)" d="m0 0" fill="#FDFDFD"/>
<path transform="translate(343,1458)" d="m0 0" fill="#FDFDFD"/>
<path transform="translate(1836,1455)" d="m0 0" fill="#FDFDFD"/>
<path transform="translate(398,1417)" d="m0 0" fill="#FDFDFD"/>
<path transform="translate(341,1406)" d="m0 0" fill="#FDFDFD"/>
<path transform="translate(342,1405)" d="m0 0" fill="#FDFDFD"/>
<path transform="translate(343,1404)" d="m0 0" fill="#FDFDFD"/>
<path transform="translate(351,1397)" d="m0 0" fill="#FDFDFD"/>
</svg>
