<svg width="740" height="239" viewBox="0 0 740 239" fill="none" xmlns="http://www.w3.org/2000/svg">
<path fill-rule="evenodd" clip-rule="evenodd" d="M109.688 195.703C69.0251 192.262 37.0918 158.152 37.0918 116.604C37.0918 72.7523 72.6436 37.2006 116.495 37.2006C146.252 37.2006 172.163 53.5468 185.777 77.7625C176.718 86.2139 169.785 93.1725 160.397 105.293C180.463 91.0975 202.755 80.1916 218.343 60.4041C216.672 57.3676 214.851 54.4071 212.928 51.5478L204.552 56.3808C202.351 53.1925 199.997 50.1055 197.467 47.1702L204.299 40.3382C200.731 36.239 196.885 32.3928 192.76 28.825L185.928 35.657C182.993 33.1267 179.931 30.7734 176.718 28.5973L181.551 20.2217C177.072 17.1853 172.34 14.4525 167.431 12.074L162.598 20.4495C159.132 18.7794 155.539 17.2865 151.87 15.996L154.375 6.65894C149.289 4.91299 144.025 3.49598 138.636 2.45853L136.131 11.7703C132.36 11.0618 128.514 10.5557 124.617 10.2774V0.611343C121.935 0.434217 119.202 0.333008 116.47 0.333008C113.737 0.333008 111.004 0.434217 108.322 0.611343V10.2774C104.425 10.5557 100.579 11.0871 96.8086 11.7956L94.3036 2.45853C88.9139 3.49598 83.6507 4.91299 78.5646 6.65894L81.0697 15.996C77.4007 17.2865 73.8075 18.7794 70.3409 20.4495L65.5079 12.074C60.599 14.4778 55.8925 17.1853 51.3884 20.2217L56.2215 28.5973C53.0332 30.7987 49.9461 33.152 47.0109 35.657L40.1789 28.825C36.0797 32.3928 32.2335 36.239 28.6657 40.3382L35.4977 47.1702C32.9673 50.1055 30.6141 53.1672 28.4126 56.3808L20.0371 51.5478C17.0007 56.0266 14.2678 60.7583 11.8893 65.6673L20.2395 70.5003C18.5695 73.9922 17.1019 77.56 15.7861 81.2291L6.44898 78.724C4.67772 83.8101 3.28602 89.0732 2.24857 94.4629L11.5603 96.968C10.8518 100.738 10.3458 104.584 10.0421 108.481H0.401397C0.224271 111.163 0.123047 113.896 0.123047 116.629C0.123047 119.362 0.224271 122.069 0.401397 124.777H10.0674C10.3458 128.674 10.8771 132.52 11.5603 136.29L2.22327 138.795C3.26072 144.185 4.67773 149.448 6.42368 154.534L15.7608 152.029C15.8367 152.206 15.8873 152.408 15.9632 152.586L21.6819 160.253C41.7224 187.151 75.3511 200.966 108.524 195.906C108.98 195.804 109.334 195.754 109.688 195.703Z" fill="#515151"/>
<path fill-rule="evenodd" clip-rule="evenodd" d="M227.149 208.405C211.006 202.231 192.711 207.621 182.488 221.538C196.481 214.934 212.802 214.554 227.276 220.83C220.09 218.4 212.549 217.692 205.16 218.603C199.366 219.311 193.698 221.083 188.435 223.815C204.503 252.535 229.68 229.18 254.857 234.241C248.936 222.247 238.941 213.264 227.149 208.405Z" fill="#515151"/>
<path fill-rule="evenodd" clip-rule="evenodd" d="M246.533 174.626C235.323 173.563 224.772 180.142 220.799 190.668C228.441 184.064 238.613 180.977 248.785 182.394C243.851 182.116 238.967 182.976 234.513 184.848C230.996 186.316 227.757 188.391 224.923 191.048C240.03 206.281 251.745 187.202 268.471 185.987C262.626 179.509 254.782 175.613 246.533 174.626Z" fill="#515151"/>
<path fill-rule="evenodd" clip-rule="evenodd" d="M176.266 169.49C189.93 158.888 201.19 145.224 209.009 129.409C193.042 169.844 157.44 199.247 114.702 207.243C114.677 207.243 114.677 207.243 114.651 207.268C113.26 207.547 111.868 207.775 110.476 208.002C72.6723 213.771 34.7926 198.235 11.9434 167.567C47.3433 231.788 131.251 245.098 189.044 201.727C232.162 169.363 249.647 112.987 232.39 61.8984C199.216 111.722 119.282 114.682 140.107 188.493C153.341 184.293 165.562 177.84 176.266 169.49Z" fill="#28AF53"/>
<path d="M328.384 71.3704H299.82L294.371 84.5538H279.781L307.203 23.0312H321.265L348.775 84.5538H333.833L328.384 71.3704ZM323.902 60.56L314.146 37.0056L304.39 60.56H323.902Z" fill="#515151"/>
<path d="M402.54 37.2693V76.6438C402.54 85.3155 400.284 91.7608 395.773 95.9795C391.261 100.198 384.669 102.308 375.998 102.308C371.427 102.308 367.091 101.751 362.99 100.638C358.888 99.5243 355.49 97.913 352.795 95.8037L358.244 85.9601C360.236 87.6007 362.756 88.8897 365.802 89.8272C368.849 90.8233 371.896 91.3213 374.943 91.3213C379.689 91.3213 383.175 90.2374 385.402 88.0694C387.687 85.9601 388.829 82.7374 388.829 78.4016V76.3801C385.255 80.3058 380.275 82.2687 373.888 82.2687C369.552 82.2687 365.568 81.3312 361.935 79.4562C358.361 77.5227 355.519 74.8274 353.41 71.3704C351.301 67.9134 350.246 63.9291 350.246 59.4174C350.246 54.9058 351.301 50.9214 353.41 47.4644C355.519 44.0075 358.361 41.3415 361.935 39.4665C365.568 37.5329 369.552 36.5661 373.888 36.5661C380.744 36.5661 385.958 38.822 389.533 43.3336V37.2693H402.54ZM376.613 71.0188C380.246 71.0188 383.205 69.9642 385.49 67.8548C387.833 65.6869 389.005 62.8744 389.005 59.4174C389.005 55.9604 387.833 53.1773 385.49 51.0679C383.205 48.9 380.246 47.816 376.613 47.816C372.98 47.816 369.992 48.9 367.648 51.0679C365.304 53.1773 364.133 55.9604 364.133 59.4174C364.133 62.8744 365.304 65.6869 367.648 67.8548C369.992 69.9642 372.98 71.0188 376.613 71.0188Z" fill="#515151"/>
<path d="M428.397 43.5094C430.038 41.2243 432.235 39.4958 434.989 38.3239C437.801 37.1521 441.024 36.5661 444.656 36.5661V49.2222C443.133 49.1051 442.108 49.0465 441.58 49.0465C437.655 49.0465 434.578 50.1597 432.352 52.3863C430.125 54.5542 429.012 57.8354 429.012 62.2299V84.5538H415.301V37.2693H428.397V43.5094Z" fill="#515151"/>
<path d="M452.809 37.2693H466.52V84.5538H452.809V37.2693ZM459.664 30.6775C457.145 30.6775 455.094 29.9451 453.512 28.4803C451.93 27.0155 451.139 25.1991 451.139 23.0312C451.139 20.8632 451.93 19.0468 453.512 17.582C455.094 16.1172 457.145 15.3848 459.664 15.3848C462.184 15.3848 464.235 16.0879 465.817 17.4941C467.399 18.9004 468.19 20.6581 468.19 22.7675C468.19 25.0526 467.399 26.9569 465.817 28.4803C464.235 29.9451 462.184 30.6775 459.664 30.6775Z" fill="#515151"/>
<path d="M531.732 23.0312C537.182 23.0312 541.898 23.9393 545.883 25.7557C549.926 27.5721 553.031 30.1502 555.199 33.49C557.367 36.8298 558.451 40.7848 558.451 45.3551C558.451 49.8668 557.367 53.8218 555.199 57.2202C553.031 60.56 549.926 63.1381 545.883 64.9545C541.898 66.7123 537.182 67.5911 531.732 67.5911H519.34V84.5538H505.102V23.0312H531.732ZM530.941 55.9897C535.219 55.9897 538.471 55.0815 540.697 53.2652C542.924 51.3902 544.037 48.7535 544.037 45.3551C544.037 41.8981 542.924 39.2614 540.697 37.445C538.471 35.5701 535.219 34.6326 530.941 34.6326H519.34V55.9897H530.941Z" fill="#515151"/>
<path d="M616.143 37.2693V84.5538H603.136V78.9289C601.319 80.9797 599.151 82.5617 596.632 83.6749C594.112 84.7296 591.388 85.2569 588.458 85.2569C582.247 85.2569 577.326 83.4699 573.693 79.8957C570.06 76.3215 568.244 71.0188 568.244 63.9877V37.2693H581.954V61.9662C581.954 69.5833 585.148 73.3919 591.534 73.3919C594.816 73.3919 597.452 72.3372 599.444 70.2278C601.437 68.0599 602.433 64.8666 602.433 60.6479V37.2693H616.143Z" fill="#515151"/>
<path d="M641.941 43.5094C643.582 41.2243 645.779 39.4958 648.533 38.3239C651.345 37.1521 654.568 36.5661 658.201 36.5661V49.2222C656.677 49.1051 655.652 49.0465 655.124 49.0465C651.199 49.0465 648.123 50.1597 645.896 52.3863C643.67 54.5542 642.556 57.8354 642.556 62.2299V84.5538H628.845V37.2693H641.941V43.5094Z" fill="#515151"/>
<path d="M712.242 61.0873C712.242 61.2631 712.154 62.4936 711.978 64.7787H676.207C676.851 67.7083 678.375 70.0228 680.777 71.722C683.18 73.4212 686.168 74.2708 689.742 74.2708C692.203 74.2708 694.371 73.9192 696.246 73.2161C698.179 72.4544 699.966 71.2825 701.607 69.7005L708.902 77.6106C704.449 82.7081 697.945 85.2569 689.39 85.2569C684.058 85.2569 679.342 84.2316 675.24 82.1808C671.139 80.0715 667.975 77.1711 665.748 73.4797C663.522 69.7884 662.408 65.599 662.408 60.9115C662.408 56.2827 663.492 52.1226 665.66 48.4312C667.887 44.6813 670.904 41.7809 674.713 39.7302C678.58 37.6208 682.887 36.5661 687.633 36.5661C692.261 36.5661 696.451 37.5622 700.201 39.5544C703.951 41.5466 706.88 44.4176 708.99 48.1676C711.158 51.8589 712.242 56.1655 712.242 61.0873ZM687.72 46.9371C684.615 46.9371 682.008 47.816 679.898 49.5738C677.789 51.3316 676.5 53.7339 676.031 56.7807H699.322C698.853 53.7925 697.564 51.4195 695.455 49.6617C693.345 47.8453 690.767 46.9371 687.72 46.9371Z" fill="#515151"/>
<path d="M304.594 143.77V146.254H282.318V144.275L300.325 121.573H282.59V119.089H304.128V121.068L286.16 143.77H304.594Z" fill="#515151"/>
<path d="M316.87 125.686C319.535 125.686 321.579 126.359 323.002 127.704C324.425 129.024 325.136 130.99 325.136 133.603V146.254H322.497V143.072C321.876 144.133 320.958 144.961 319.742 145.556C318.552 146.151 317.129 146.448 315.473 146.448C313.197 146.448 311.386 145.905 310.04 144.818C308.695 143.732 308.022 142.296 308.022 140.511C308.022 138.777 308.643 137.38 309.885 136.319C311.153 135.259 313.158 134.728 315.9 134.728H322.381V133.486C322.381 131.727 321.889 130.395 320.906 129.489C319.923 128.558 318.487 128.092 316.599 128.092C315.305 128.092 314.063 128.312 312.873 128.752C311.683 129.166 310.661 129.748 309.807 130.498L308.566 128.441C309.6 127.562 310.842 126.889 312.291 126.424C313.74 125.932 315.266 125.686 316.87 125.686ZM315.9 144.275C317.452 144.275 318.785 143.926 319.897 143.227C321.01 142.503 321.838 141.468 322.381 140.123V136.785H315.978C312.485 136.785 310.739 138.001 310.739 140.433C310.739 141.623 311.192 142.567 312.097 143.266C313.003 143.939 314.27 144.275 315.9 144.275Z" fill="#515151"/>
<path d="M358.078 125.686C360.639 125.686 362.644 126.424 364.093 127.898C365.568 129.373 366.305 131.546 366.305 134.418V146.254H363.55V134.689C363.55 132.568 363.032 130.951 361.997 129.839C360.988 128.726 359.552 128.17 357.69 128.17C355.568 128.17 353.899 128.83 352.684 130.149C351.468 131.443 350.86 133.241 350.86 135.543V146.254H348.104V134.689C348.104 132.568 347.587 130.951 346.552 129.839C345.543 128.726 344.094 128.17 342.206 128.17C340.11 128.17 338.441 128.83 337.199 130.149C335.983 131.443 335.375 133.241 335.375 135.543V146.254H332.62V125.841H335.259V129.567C335.983 128.325 336.992 127.368 338.286 126.695C339.58 126.022 341.067 125.686 342.749 125.686C344.456 125.686 345.931 126.048 347.173 126.773C348.441 127.497 349.385 128.571 350.006 129.994C350.756 128.648 351.83 127.601 353.227 126.85C354.65 126.074 356.267 125.686 358.078 125.686Z" fill="#515151"/>
<path d="M382.197 146.448C380.23 146.448 378.458 146.008 376.88 145.129C375.302 144.223 374.06 142.981 373.154 141.403C372.249 139.825 371.796 138.04 371.796 136.048C371.796 134.056 372.249 132.27 373.154 130.692C374.06 129.114 375.302 127.885 376.88 127.006C378.458 126.126 380.23 125.686 382.197 125.686C384.163 125.686 385.935 126.126 387.513 127.006C389.091 127.885 390.32 129.114 391.2 130.692C392.105 132.27 392.558 134.056 392.558 136.048C392.558 138.04 392.105 139.825 391.2 141.403C390.32 142.981 389.091 144.223 387.513 145.129C385.935 146.008 384.163 146.448 382.197 146.448ZM382.197 144.003C383.645 144.003 384.939 143.68 386.077 143.033C387.242 142.36 388.147 141.416 388.794 140.2C389.441 138.984 389.764 137.6 389.764 136.048C389.764 134.495 389.441 133.111 388.794 131.895C388.147 130.679 387.242 129.748 386.077 129.101C384.939 128.429 383.645 128.092 382.197 128.092C380.748 128.092 379.441 128.429 378.277 129.101C377.139 129.748 376.233 130.679 375.561 131.895C374.914 133.111 374.59 134.495 374.59 136.048C374.59 137.6 374.914 138.984 375.561 140.2C376.233 141.416 377.139 142.36 378.277 143.033C379.441 143.68 380.748 144.003 382.197 144.003Z" fill="#515151"/>
<path d="M408.584 125.686C411.145 125.686 413.176 126.436 414.677 127.937C416.203 129.412 416.966 131.572 416.966 134.418V146.254H414.211V134.689C414.211 132.568 413.681 130.951 412.62 129.839C411.559 128.726 410.046 128.17 408.079 128.17C405.88 128.17 404.134 128.83 402.84 130.149C401.573 131.443 400.939 133.241 400.939 135.543V146.254H398.183V125.841H400.822V129.606C401.573 128.364 402.607 127.407 403.927 126.734C405.272 126.035 406.825 125.686 408.584 125.686Z" fill="#515151"/>
<path d="M431.587 125.686C434.252 125.686 436.296 126.359 437.719 127.704C439.142 129.024 439.853 130.99 439.853 133.603V146.254H437.214V143.072C436.593 144.133 435.675 144.961 434.459 145.556C433.269 146.151 431.846 146.448 430.19 146.448C427.913 146.448 426.102 145.905 424.757 144.818C423.412 143.732 422.739 142.296 422.739 140.511C422.739 138.777 423.36 137.38 424.602 136.319C425.87 135.259 427.875 134.728 430.617 134.728H437.098V133.486C437.098 131.727 436.606 130.395 435.623 129.489C434.64 128.558 433.204 128.092 431.316 128.092C430.022 128.092 428.78 128.312 427.59 128.752C426.4 129.166 425.378 129.748 424.524 130.498L423.282 128.441C424.317 127.562 425.559 126.889 427.008 126.424C428.457 125.932 429.983 125.686 431.587 125.686ZM430.617 144.275C432.169 144.275 433.502 143.926 434.614 143.227C435.727 142.503 436.555 141.468 437.098 140.123V136.785H430.695C427.202 136.785 425.456 138.001 425.456 140.433C425.456 141.623 425.908 142.567 426.814 143.266C427.719 143.939 428.987 144.275 430.617 144.275Z" fill="#515151"/>
<path d="M464.111 125.841L455.03 146.254H452.197L443.155 125.841H446.027L453.672 143.227L461.394 125.841H464.111Z" fill="#515151"/>
<path d="M467.991 125.841H470.747V146.254H467.991V125.841ZM469.388 121.379C468.819 121.379 468.341 121.184 467.953 120.796C467.564 120.408 467.37 119.943 467.37 119.399C467.37 118.882 467.564 118.429 467.953 118.041C468.341 117.653 468.819 117.459 469.388 117.459C469.958 117.459 470.436 117.653 470.824 118.041C471.212 118.403 471.406 118.843 471.406 119.361C471.406 119.93 471.212 120.408 470.824 120.796C470.436 121.184 469.958 121.379 469.388 121.379Z" fill="#515151"/>
<path d="M495.566 125.841L485.36 148.699C484.532 150.613 483.575 151.972 482.488 152.774C481.401 153.576 480.095 153.977 478.569 153.977C477.585 153.977 476.667 153.822 475.813 153.511C474.959 153.201 474.222 152.735 473.601 152.114L474.882 150.057C475.917 151.092 477.159 151.61 478.607 151.61C479.539 151.61 480.328 151.351 480.975 150.833C481.647 150.316 482.268 149.436 482.837 148.194L483.73 146.215L474.61 125.841H477.482L485.166 143.188L492.85 125.841H495.566Z" fill="#515151"/>
<path d="M518.063 146.448C516.045 146.448 514.234 146.008 512.63 145.129C511.052 144.249 509.81 143.02 508.905 141.442C507.999 139.838 507.546 138.04 507.546 136.048C507.546 134.056 507.999 132.27 508.905 130.692C509.81 129.114 511.052 127.885 512.63 127.006C514.234 126.126 516.045 125.686 518.063 125.686C519.823 125.686 521.388 126.035 522.759 126.734C524.156 127.407 525.256 128.403 526.058 129.722L524.001 131.119C523.328 130.11 522.474 129.36 521.44 128.868C520.405 128.351 519.279 128.092 518.063 128.092C516.589 128.092 515.256 128.429 514.066 129.101C512.902 129.748 511.983 130.679 511.311 131.895C510.664 133.111 510.341 134.495 510.341 136.048C510.341 137.626 510.664 139.023 511.311 140.239C511.983 141.429 512.902 142.36 514.066 143.033C515.256 143.68 516.589 144.003 518.063 144.003C519.279 144.003 520.405 143.757 521.44 143.266C522.474 142.774 523.328 142.024 524.001 141.015L526.058 142.412C525.256 143.732 524.156 144.741 522.759 145.439C521.362 146.112 519.797 146.448 518.063 146.448Z" fill="#515151"/>
<path d="M541.568 125.686C544.129 125.686 546.16 126.436 547.66 127.937C549.187 129.412 549.95 131.572 549.95 134.418V146.254H547.195V134.689C547.195 132.568 546.664 130.951 545.604 129.839C544.543 128.726 543.029 128.17 541.063 128.17C538.864 128.17 537.118 128.83 535.824 130.149C534.556 131.443 533.923 133.241 533.923 135.543V146.254H531.167V117.459H533.923V129.412C534.673 128.222 535.708 127.303 537.027 126.656C538.347 126.01 539.86 125.686 541.568 125.686Z" fill="#515151"/>
<path d="M565.85 146.448C563.884 146.448 562.111 146.008 560.533 145.129C558.955 144.223 557.713 142.981 556.808 141.403C555.902 139.825 555.449 138.04 555.449 136.048C555.449 134.056 555.902 132.27 556.808 130.692C557.713 129.114 558.955 127.885 560.533 127.006C562.111 126.126 563.884 125.686 565.85 125.686C567.816 125.686 569.588 126.126 571.166 127.006C572.745 127.885 573.973 129.114 574.853 130.692C575.759 132.27 576.211 134.056 576.211 136.048C576.211 138.04 575.759 139.825 574.853 141.403C573.973 142.981 572.745 144.223 571.166 145.129C569.588 146.008 567.816 146.448 565.85 146.448ZM565.85 144.003C567.299 144.003 568.592 143.68 569.731 143.033C570.895 142.36 571.8 141.416 572.447 140.2C573.094 138.984 573.417 137.6 573.417 136.048C573.417 134.495 573.094 133.111 572.447 131.895C571.8 130.679 570.895 129.748 569.731 129.101C568.592 128.429 567.299 128.092 565.85 128.092C564.401 128.092 563.094 128.429 561.93 129.101C560.792 129.748 559.886 130.679 559.214 131.895C558.567 133.111 558.244 134.495 558.244 136.048C558.244 137.6 558.567 138.984 559.214 140.2C559.886 141.416 560.792 142.36 561.93 143.033C563.094 143.68 564.401 144.003 565.85 144.003Z" fill="#515151"/>
<path d="M584.476 129.839C585.122 128.467 586.08 127.432 587.347 126.734C588.641 126.035 590.232 125.686 592.121 125.686V128.364L591.461 128.325C589.314 128.325 587.632 128.985 586.416 130.304C585.2 131.624 584.592 133.474 584.592 135.854V146.254H581.837V125.841H584.476V129.839Z" fill="#515151"/>
<path d="M615.134 125.841L606.053 146.254H603.22L594.178 125.841H597.05L604.695 143.227L612.418 125.841H615.134Z" fill="#515151"/>
<path d="M625.549 125.686C628.213 125.686 630.257 126.359 631.68 127.704C633.103 129.024 633.815 130.99 633.815 133.603V146.254H631.176V143.072C630.555 144.133 629.636 144.961 628.42 145.556C627.23 146.151 625.807 146.448 624.152 146.448C621.875 146.448 620.064 145.905 618.719 144.818C617.373 143.732 616.701 142.296 616.701 140.511C616.701 138.777 617.322 137.38 618.563 136.319C619.831 135.259 621.836 134.728 624.579 134.728H631.059V133.486C631.059 131.727 630.568 130.395 629.585 129.489C628.602 128.558 627.166 128.092 625.277 128.092C623.983 128.092 622.742 128.312 621.552 128.752C620.361 129.166 619.34 129.748 618.486 130.498L617.244 128.441C618.279 127.562 619.521 126.889 620.969 126.424C622.418 125.932 623.945 125.686 625.549 125.686ZM624.579 144.275C626.131 144.275 627.463 143.926 628.576 143.227C629.688 142.503 630.516 141.468 631.059 140.123V136.785H624.656C621.163 136.785 619.417 138.001 619.417 140.433C619.417 141.623 619.87 142.567 620.775 143.266C621.681 143.939 622.949 144.275 624.579 144.275Z" fill="#515151"/>
<path d="M649.834 146.448C647.816 146.448 646.005 146.008 644.401 145.129C642.823 144.249 641.581 143.02 640.676 141.442C639.77 139.838 639.317 138.04 639.317 136.048C639.317 134.056 639.77 132.27 640.676 130.692C641.581 129.114 642.823 127.885 644.401 127.006C646.005 126.126 647.816 125.686 649.834 125.686C651.594 125.686 653.159 126.035 654.53 126.734C655.927 127.407 657.027 128.403 657.829 129.722L655.772 131.119C655.099 130.11 654.245 129.36 653.211 128.868C652.176 128.351 651.05 128.092 649.834 128.092C648.36 128.092 647.027 128.429 645.837 129.101C644.673 129.748 643.754 130.679 643.082 131.895C642.435 133.111 642.112 134.495 642.112 136.048C642.112 137.626 642.435 139.023 643.082 140.239C643.754 141.429 644.673 142.36 645.837 143.033C647.027 143.68 648.36 144.003 649.834 144.003C651.05 144.003 652.176 143.757 653.211 143.266C654.245 142.774 655.099 142.024 655.772 141.015L657.829 142.412C657.027 143.732 655.927 144.741 654.53 145.439C653.133 146.112 651.568 146.448 649.834 146.448Z" fill="#515151"/>
<path d="M673.339 125.686C675.9 125.686 677.931 126.436 679.431 127.937C680.958 129.412 681.721 131.572 681.721 134.418V146.254H678.966V134.689C678.966 132.568 678.435 130.951 677.375 129.839C676.314 128.726 674.8 128.17 672.834 128.17C670.635 128.17 668.889 128.83 667.595 130.149C666.327 131.443 665.693 133.241 665.693 135.543V146.254H662.938V117.459H665.693V129.412C666.444 128.222 667.479 127.303 668.798 126.656C670.118 126.01 671.631 125.686 673.339 125.686Z" fill="#515151"/>
<path d="M689.201 125.841H691.957V146.254H689.201V125.841ZM690.598 121.379C690.029 121.379 689.551 121.184 689.163 120.796C688.774 120.408 688.58 119.943 688.58 119.399C688.58 118.882 688.774 118.429 689.163 118.041C689.551 117.653 690.029 117.459 690.598 117.459C691.168 117.459 691.646 117.653 692.034 118.041C692.422 118.403 692.616 118.843 692.616 119.361C692.616 119.93 692.422 120.408 692.034 120.796C691.646 121.184 691.168 121.379 690.598 121.379Z" fill="#515151"/>
<path d="M699.623 117.459H702.379V146.254H699.623V117.459Z" fill="#515151"/>
<path d="M710.045 125.841H712.801V146.254H710.045V125.841ZM711.442 121.379C710.873 121.379 710.395 121.184 710.006 120.796C709.618 120.408 709.424 119.943 709.424 119.399C709.424 118.882 709.618 118.429 710.006 118.041C710.395 117.653 710.873 117.459 711.442 117.459C712.011 117.459 712.49 117.653 712.878 118.041C713.266 118.403 713.46 118.843 713.46 119.361C713.46 119.93 713.266 120.408 712.878 120.796C712.49 121.184 712.011 121.379 711.442 121.379Z" fill="#515151"/>
<path d="M728.035 136.009L723.222 140.433V146.254H720.467V117.459H723.222V136.979L735.408 125.841H738.823L730.091 134.185L739.638 146.254H736.262L728.035 136.009Z" fill="#515151"/>
<path d="M302.809 172.841V193.254H300.17V189.529C299.445 190.77 298.449 191.741 297.182 192.439C295.914 193.112 294.465 193.448 292.835 193.448C290.17 193.448 288.062 192.711 286.51 191.236C284.983 189.736 284.22 187.549 284.22 184.678V172.841H286.975V184.406C286.975 186.553 287.506 188.183 288.566 189.296C289.627 190.408 291.141 190.964 293.107 190.964C295.254 190.964 296.949 190.318 298.191 189.024C299.432 187.705 300.053 185.881 300.053 183.552V172.841H302.809Z" fill="#515151"/>
<path d="M315.997 193.448C314.342 193.448 312.751 193.215 311.224 192.75C309.724 192.258 308.546 191.65 307.693 190.926L308.935 188.752C309.788 189.425 310.862 189.981 312.156 190.421C313.449 190.835 314.794 191.042 316.191 191.042C318.054 191.042 319.425 190.757 320.305 190.188C321.211 189.593 321.663 188.765 321.663 187.705C321.663 186.954 321.418 186.372 320.926 185.958C320.434 185.518 319.814 185.195 319.063 184.988C318.313 184.755 317.317 184.535 316.075 184.328C314.419 184.018 313.087 183.707 312.078 183.397C311.069 183.061 310.202 182.504 309.478 181.728C308.779 180.952 308.43 179.878 308.43 178.507C308.43 176.8 309.141 175.403 310.564 174.316C311.987 173.229 313.967 172.686 316.502 172.686C317.821 172.686 319.141 172.867 320.46 173.229C321.78 173.566 322.866 174.019 323.72 174.588L322.517 176.8C320.835 175.636 318.83 175.053 316.502 175.053C314.743 175.053 313.41 175.364 312.505 175.985C311.625 176.606 311.185 177.421 311.185 178.43C311.185 179.206 311.431 179.827 311.923 180.292C312.44 180.758 313.074 181.107 313.824 181.34C314.575 181.547 315.609 181.767 316.929 182C318.559 182.31 319.865 182.621 320.848 182.931C321.832 183.242 322.672 183.772 323.371 184.522C324.069 185.273 324.419 186.308 324.419 187.627C324.419 189.412 323.668 190.835 322.168 191.896C320.693 192.931 318.636 193.448 315.997 193.448Z" fill="#515151"/>
<path d="M337.08 183.009L332.268 187.433V193.254H329.512V164.459H332.268V183.979L344.453 172.841H347.868L339.137 181.185L348.683 193.254H345.307L337.08 183.009Z" fill="#515151"/>
<path d="M370.835 172.841V193.254H368.197V189.529C367.472 190.77 366.476 191.741 365.208 192.439C363.941 193.112 362.492 193.448 360.862 193.448C358.197 193.448 356.089 192.711 354.536 191.236C353.01 189.736 352.247 187.549 352.247 184.678V172.841H355.002V184.406C355.002 186.553 355.532 188.183 356.593 189.296C357.654 190.408 359.167 190.964 361.134 190.964C363.281 190.964 364.975 190.318 366.217 189.024C367.459 187.705 368.08 185.881 368.08 183.552V172.841H370.835Z" fill="#515151"/>
<path d="M388.953 172.686C391.514 172.686 393.545 173.436 395.046 174.937C396.572 176.412 397.335 178.572 397.335 181.418V193.254H394.58V181.689C394.58 179.568 394.049 177.951 392.989 176.839C391.928 175.726 390.414 175.17 388.448 175.17C386.249 175.17 384.503 175.83 383.209 177.149C381.942 178.443 381.308 180.241 381.308 182.543V193.254H378.552V172.841H381.191V176.606C381.942 175.364 382.976 174.407 384.296 173.734C385.641 173.035 387.193 172.686 388.953 172.686Z" fill="#515151"/>
<path d="M411.956 172.686C414.621 172.686 416.665 173.359 418.088 174.704C419.511 176.024 420.222 177.99 420.222 180.603V193.254H417.583V190.072C416.962 191.133 416.044 191.961 414.828 192.556C413.638 193.151 412.215 193.448 410.559 193.448C408.282 193.448 406.471 192.905 405.126 191.818C403.781 190.732 403.108 189.296 403.108 187.511C403.108 185.777 403.729 184.38 404.971 183.319C406.239 182.259 408.244 181.728 410.986 181.728H417.467V180.486C417.467 178.727 416.975 177.395 415.992 176.489C415.009 175.558 413.573 175.092 411.684 175.092C410.391 175.092 409.149 175.312 407.959 175.752C406.769 176.166 405.747 176.748 404.893 177.498L403.651 175.441C404.686 174.562 405.928 173.889 407.377 173.424C408.826 172.932 410.352 172.686 411.956 172.686ZM410.986 191.275C412.538 191.275 413.871 190.926 414.983 190.227C416.096 189.503 416.923 188.468 417.467 187.123V183.785H411.064C407.571 183.785 405.825 185.001 405.825 187.433C405.825 188.623 406.277 189.567 407.183 190.266C408.088 190.939 409.356 191.275 410.986 191.275Z" fill="#515151"/>
<path d="M427.706 164.459H430.461V193.254H427.706V164.459Z" fill="#515151"/>
<path d="M445.268 172.686C447.933 172.686 449.977 173.359 451.4 174.704C452.823 176.024 453.534 177.99 453.534 180.603V193.254H450.895V190.072C450.275 191.133 449.356 191.961 448.14 192.556C446.95 193.151 445.527 193.448 443.871 193.448C441.595 193.448 439.784 192.905 438.438 191.818C437.093 190.732 436.42 189.296 436.42 187.511C436.42 185.777 437.041 184.38 438.283 183.319C439.551 182.259 441.556 181.728 444.298 181.728H450.779V180.486C450.779 178.727 450.287 177.395 449.304 176.489C448.321 175.558 446.885 175.092 444.997 175.092C443.703 175.092 442.461 175.312 441.271 175.752C440.081 176.166 439.059 176.748 438.205 177.498L436.964 175.441C437.998 174.562 439.24 173.889 440.689 173.424C442.138 172.932 443.664 172.686 445.268 172.686ZM444.298 191.275C445.851 191.275 447.183 190.926 448.295 190.227C449.408 189.503 450.236 188.468 450.779 187.123V183.785H444.376C440.883 183.785 439.137 185.001 439.137 187.433C439.137 188.623 439.59 189.567 440.495 190.266C441.401 190.939 442.668 191.275 444.298 191.275Z" fill="#515151"/>
<path d="M463.657 176.839C464.304 175.467 465.261 174.432 466.529 173.734C467.822 173.035 469.414 172.686 471.302 172.686V175.364L470.642 175.325C468.495 175.325 466.813 175.985 465.597 177.304C464.381 178.624 463.773 180.474 463.773 182.854V193.254H461.018V172.841H463.657V176.839Z" fill="#515151"/>
<path d="M476.291 172.841H479.046V193.254H476.291V172.841ZM477.688 168.379C477.119 168.379 476.64 168.184 476.252 167.796C475.864 167.408 475.67 166.943 475.67 166.399C475.67 165.882 475.864 165.429 476.252 165.041C476.64 164.653 477.119 164.459 477.688 164.459C478.257 164.459 478.736 164.653 479.124 165.041C479.512 165.403 479.706 165.843 479.706 166.361C479.706 166.93 479.512 167.408 479.124 167.796C478.736 168.184 478.257 168.379 477.688 168.379Z" fill="#515151"/>
</svg>
